<?xml version="1.0" encoding="UTF-8"?>
<svg version="1.1" xmlns="http://www.w3.org/2000/svg" width="2448" height="1632">
<path d="M0 0 C807.84 0 1615.68 0 2448 0 C2448 538.56 2448 1077.12 2448 1632 C1640.16 1632 832.32 1632 0 1632 C0 1093.44 0 554.88 0 0 Z " fill="#FEFEFE" transform="translate(0,0)"/>
<path d="M0 0 C2.84802894 1.15016553 4.98702337 2.56534012 7.4375 4.421875 C8.39914062 5.14503906 9.36078125 5.86820312 10.3515625 6.61328125 C11.87910156 7.78697266 11.87910156 7.78697266 13.4375 8.984375 C14.47648437 9.77714844 15.51546875 10.56992187 16.5859375 11.38671875 C19.32245359 13.48013273 22.04775587 15.58774449 24.77148438 17.69775391 C26.4318772 18.98003266 28.09772003 20.25485573 29.765625 21.52734375 C34.80393828 25.37495899 39.80313163 29.25362142 44.6875 33.296875 C49.91696758 37.61061815 55.28350071 41.7248835 60.67773438 45.82861328 C66.04057865 49.90980865 71.37240993 54.02870022 76.6875 58.171875 C83.91596188 63.80455288 91.16777086 69.40506572 98.4375 74.984375 C101.14761281 77.06793416 103.85679541 79.15270234 106.56591797 81.23754883 C109.25972065 83.31029607 111.9546915 85.38148347 114.65234375 87.44921875 C120.77873997 92.14816837 126.86929216 96.8886552 132.92993164 101.67211914 C137.51948864 105.28525496 142.16087091 108.82669267 146.8125 112.359375 C152.51093408 116.68809846 158.10038498 121.12373166 163.625 125.671875 C169.12275949 130.19376869 174.74078642 134.44260038 180.56884766 138.52807617 C184.81813944 141.5128285 188.87907959 144.66606149 192.90625 147.94140625 C199.34621244 153.13909198 205.9744643 158.10654831 212.5546875 163.125 C213.99488756 164.22383266 215.43499043 165.32279271 216.875 166.421875 C217.59526367 166.97157959 218.31552734 167.52128418 219.05761719 168.08764648 C224.23388648 172.04559305 229.36480175 176.05743934 234.47583008 180.09912109 C238.12652441 182.97817105 241.82581422 185.77949811 245.5625 188.546875 C249.54927788 191.51329021 253.39450995 194.58663544 257.1875 197.796875 C262.41569472 202.20709923 267.8193074 206.31559441 273.3125 210.38867188 C277.85105173 213.76470232 282.29328028 217.23550766 286.6875 220.796875 C293.45166138 226.27271146 300.39616268 231.48824922 307.37255859 236.68969727 C312.32585915 240.38722475 317.22545471 244.12810804 322.01953125 248.03125 C324.53955704 250.06681203 327.09163616 252.05626911 329.65039062 254.04272461 C332.04551063 255.90956511 334.42320485 257.79777071 336.79833984 259.68994141 C338.29564006 260.87234917 339.81289341 262.02937701 341.33203125 263.18359375 C346.99636095 267.72397771 346.99636095 267.72397771 348.12109375 270.9375 C348.43238684 275.729527 346.46200626 279.72439891 344.37890625 283.94140625 C343.29819195 286.05673082 343.29819195 286.05673082 342.9375 288.859375 C342.26091135 291.73487675 340.81115874 292.35248461 338.4375 293.984375 C338.1075 294.974375 337.7775 295.964375 337.4375 296.984375 C333.72785148 300.9327716 329.9261773 303.30677878 324.49023438 303.75732422 C322.67097994 303.79723744 320.85085098 303.80728431 319.03125 303.7890625 C318.1743457 303.80267822 317.31744141 303.81629395 316.43457031 303.83032227 C313.26914095 303.87209068 310.10320305 303.86281498 306.9375 303.859375 C296.295 303.92125 296.295 303.92125 285.4375 303.984375 C285.1075 332.034375 284.7775 360.084375 284.4375 388.984375 C233.6175 389.314375 182.7975 389.644375 130.4375 389.984375 C130.4375 395.264375 130.4375 400.544375 130.4375 405.984375 C133.17961463 407.35543231 135.37792954 407.12488819 138.44851685 407.14259338 C139.73021759 407.1523822 141.01191833 407.16217102 142.3324585 407.17225647 C143.76086388 407.17816106 145.18926966 407.18397148 146.61767578 407.18969727 C148.11549146 407.19927308 149.61330441 407.20928298 151.1111145 407.21969604 C155.18522894 407.24678334 159.25935501 407.26777215 163.33350992 407.28769803 C167.58831825 407.30953404 171.84309057 407.33693437 176.09786987 407.36375427 C184.15845775 407.41371348 192.21906557 407.45864031 200.27969253 407.50177664 C209.4549206 407.55112146 218.63011256 407.60604979 227.80530572 407.66145623 C246.6826703 407.77532581 265.56006894 407.88215399 284.4375 407.984375 C284.46214638 413.80509122 284.4803343 419.62577734 284.49243164 425.4465332 C284.49747267 427.42830941 284.50430538 429.41008189 284.51293945 431.3918457 C284.52501515 434.23389609 284.53073045 437.07589747 284.53515625 439.91796875 C284.54031754 440.80963242 284.54547882 441.70129608 284.55079651 442.61997986 C284.55099177 444.74178101 284.4996003 446.8634828 284.4375 448.984375 C282.53138592 450.89048908 279.71245399 450.10842535 277.1757324 450.11538348 C276.26388252 450.11275646 275.35203263 450.11012945 274.41255093 450.10742283 C272.96726066 450.1091536 272.96726066 450.1091536 271.49277261 450.11091933 C268.22111202 450.11359418 264.94949935 450.10905673 261.67784119 450.10462952 C259.32584181 450.10506504 256.97384247 450.1059396 254.6218434 450.10721868 C249.48599479 450.10899632 244.3501566 450.10763898 239.21430969 450.10358047 C231.57741188 450.09756226 223.94052139 450.0972431 216.30362163 450.09812246 C203.45911019 450.09943852 190.61460387 450.0960868 177.77009392 450.09010506 C165.04635531 450.0841947 152.32261883 450.08034046 139.59887886 450.07925224 C138.80872994 450.0791835 138.01858101 450.07911476 137.20448818 450.07904394 C133.19197154 450.07870562 129.1794549 450.07840423 125.16693825 450.07811707 C96.72188642 450.07601481 68.27683737 450.06927232 39.83178711 450.05981445 C12.19213882 450.05063497 -15.4475087 450.04354893 -43.0871582 450.03930664 C-43.93863855 450.03917511 -44.79011889 450.03904359 -45.66740167 450.03890808 C-54.21806 450.03758959 -62.76871834 450.03631377 -71.31937668 450.03506922 C-88.73915786 450.03253278 -106.15893899 450.02971153 -123.57872009 450.02671814 C-124.37971149 450.02658085 -125.18070289 450.02644356 -126.00596675 450.02630211 C-179.52481235 450.01709632 -233.04365631 450.00117386 -286.5625 449.984375 C-286.5625 436.124375 -286.5625 422.264375 -286.5625 407.984375 C-235.0825 407.654375 -183.6025 407.324375 -130.5625 406.984375 C-130.5625 401.374375 -130.5625 395.764375 -130.5625 389.984375 C-182.0425 389.654375 -233.5225 389.324375 -286.5625 388.984375 C-286.5625 360.934375 -286.5625 332.884375 -286.5625 303.984375 C-300.0925 303.984375 -313.6225 303.984375 -327.5625 303.984375 C-339.3835636 296.59621025 -345.17825441 289.13711176 -349.5625 275.984375 C-350.015625 272.6640625 -350.015625 272.6640625 -349.5625 268.984375 C-347.49702343 266.64390894 -345.74184085 264.98149288 -343.3125 263.109375 C-342.67860352 262.5947168 -342.04470703 262.08005859 -341.39160156 261.54980469 C-339.46799452 260.00111356 -337.52202093 258.48727917 -335.5625 256.984375 C-335.00820313 256.55801758 -334.45390625 256.13166016 -333.8828125 255.69238281 C-331.39215966 253.78876817 -328.88042216 251.91645247 -326.35546875 250.05859375 C-322.8950591 247.48869512 -319.54899645 244.79260847 -316.1953125 242.0859375 C-312.61111627 239.22496187 -308.97596452 236.43278753 -305.33300781 233.6472168 C-301.26904936 230.5386642 -297.25468471 227.37288737 -293.26953125 224.1640625 C-291.5625 222.984375 -291.5625 222.984375 -289.5625 222.984375 C-289.5625 222.324375 -289.5625 221.664375 -289.5625 220.984375 C-287.20308985 219.07019373 -284.83187025 217.26603662 -282.375 215.484375 C-280.89925004 214.39649711 -279.4239963 213.30794578 -277.94921875 212.21875 C-277.20849121 211.67412109 -276.46776367 211.12949219 -275.70458984 210.56835938 C-267.88970014 204.78958067 -260.24384794 198.78263076 -252.68359375 192.67578125 C-250.5625 190.984375 -250.5625 190.984375 -248.46152687 189.67713833 C-246.37851253 188.14893756 -246.37851253 188.14893756 -246.06027794 185.7991724 C-246.0591884 184.94433482 -246.05809887 184.08949724 -246.05697632 183.20875549 C-246.04044258 181.73455643 -246.04044258 181.73455643 -246.02357483 180.23057556 C-246.03583351 178.61512596 -246.03583351 178.61512596 -246.04833984 176.96704102 C-246.03765221 175.26427002 -246.03765221 175.26427002 -246.02674866 173.52709961 C-246.0074049 169.76398523 -246.01575941 166.00142915 -246.0234375 162.23828125 C-246.01353775 159.62897413 -246.00159927 157.01967402 -245.98770142 154.41038513 C-245.95743073 148.23514379 -245.94574582 142.06003107 -245.94212496 135.8847217 C-245.93508698 124.17384464 -245.89976203 112.46312446 -245.8486824 100.7523632 C-245.83606186 96.9012302 -245.83685859 93.05026151 -245.83895874 89.19911194 C-245.83237958 86.84310783 -245.82537355 84.48710486 -245.81787109 82.13110352 C-245.82199509 81.05616135 -245.82611908 79.98121918 -245.83036804 78.873703 C-245.8249852 77.8880838 -245.81960236 76.9024646 -245.8140564 75.88697815 C-245.81355317 74.60415624 -245.81355317 74.60415624 -245.81303978 73.29541874 C-245.53613498 70.74117726 -244.9157126 69.15772202 -243.5625 66.984375 C-239.65978109 63.9192802 -236.62812273 63.60949588 -231.74023438 63.61206055 C-231.07453934 63.60840988 -230.4088443 63.60475922 -229.72297668 63.60099792 C-227.53380407 63.59292614 -225.34537957 63.60647357 -223.15625 63.62109375 C-221.62837728 63.62161277 -220.10050389 63.62109346 -218.57263184 63.61958313 C-215.37497958 63.6196727 -212.17758023 63.63007122 -208.97998047 63.64819336 C-204.88772729 63.67088006 -200.79584338 63.67142302 -196.70354462 63.66467571 C-193.54991391 63.66132915 -190.39636689 63.66797874 -187.24275208 63.67780495 C-185.73412006 63.68164539 -184.22547872 63.68280997 -182.71684265 63.6812191 C-180.6059709 63.68084691 -178.49556688 63.69351094 -176.38476562 63.7097168 C-175.18517212 63.71432419 -173.98557861 63.71893158 -172.74963379 63.72367859 C-168.07070212 64.10639886 -165.46612325 64.98034916 -162.3125 68.484375 C-159.9332726 71.88327128 -159.43826376 73.52612964 -159.44897461 77.61767578 C-159.44905014 78.57852081 -159.44912567 79.53936584 -159.44920349 80.52932739 C-159.45436478 81.56894623 -159.45952606 82.60856506 -159.46484375 83.6796875 C-159.46696617 85.27355789 -159.46696617 85.27355789 -159.46913147 86.89962769 C-159.47474166 90.30290509 -159.48729591 93.70611738 -159.5 97.109375 C-159.50501369 99.41275947 -159.50957682 101.71614497 -159.51367188 104.01953125 C-159.5247144 109.67450149 -159.54146248 115.32943359 -159.5625 120.984375 C-156.15222188 118.74110531 -152.80801178 116.47967055 -149.6015625 113.953125 C-148.89 113.39512207 -148.1784375 112.83711914 -147.4453125 112.26220703 C-146.70023438 111.67552246 -145.95515625 111.08883789 -145.1875 110.484375 C-139.00819644 105.65423643 -132.81505537 100.84445949 -126.5625 96.109375 C-125.88654785 95.59181641 -125.2105957 95.07425781 -124.51416016 94.54101562 C-119.79514693 90.984375 -119.79514693 90.984375 -117.5625 90.984375 C-117.5625 90.324375 -117.5625 89.664375 -117.5625 88.984375 C-115.76419482 87.43857158 -113.96409712 86.01911354 -112.0625 84.609375 C-111.48081055 84.17020752 -110.89912109 83.73104004 -110.29980469 83.27856445 C-108.39211173 81.84073294 -106.47770256 80.41218428 -104.5625 78.984375 C-103.28614551 78.027761 -102.01010449 77.07072859 -100.734375 76.11328125 C-98.75477204 74.62820646 -96.77479036 73.14365433 -94.79345703 71.66088867 C-82.82887059 62.70240101 -70.98923389 53.58659865 -59.25976562 44.32275391 C-57.54552731 42.97099119 -55.82802571 41.62349097 -54.109375 40.27734375 C-48.04510135 35.52617342 -42.00689925 30.74542203 -36 25.921875 C-30.31324017 21.3588593 -24.58047895 16.86608124 -18.7734375 12.45703125 C-16.49045458 10.71697857 -14.25733647 8.92723082 -12.0390625 7.10546875 C-11.16628662 6.40091553 -11.16628662 6.40091553 -10.27587891 5.68212891 C-9.1614872 4.78115163 -8.05634683 3.86856779 -6.96240234 2.94287109 C-4.57042381 1.02882872 -3.11350781 -0.0189848 0 0 Z " fill="#1288FE" transform="translate(1225.5625,453.015625)"/>
<path d="M0 0 C1.36777483 0.00394052 1.36777483 0.00394052 2.76318148 0.00796065 C3.72670832 0.0068068 4.69023517 0.00565296 5.68295979 0.00446415 C8.95462038 0.0017893 12.22623306 0.00632674 15.49789122 0.01075396 C17.8498906 0.01031843 20.20188993 0.00944387 22.55388901 0.00816479 C27.68973761 0.00638715 32.82557581 0.0077445 37.96142271 0.011803 C45.59832053 0.01782122 53.23521101 0.01814037 60.87211077 0.01726101 C73.71662222 0.01594496 86.56112853 0.01929668 99.40563849 0.02527842 C112.1293771 0.03118877 124.85311357 0.03504302 137.57685354 0.03613123 C138.76207693 0.03623434 138.76207693 0.03623434 139.97124422 0.03633953 C143.98376087 0.03667785 147.99627751 0.03697924 152.00879415 0.03726641 C180.45384599 0.03936867 208.89889503 0.04611116 237.34394529 0.05556902 C264.98359358 0.06474851 292.6232411 0.07183454 320.26289061 0.07607684 C321.11437095 0.07620836 321.96585129 0.07633989 322.84313407 0.0764754 C331.3937924 0.07779388 339.94445074 0.0790697 348.49510908 0.08031426 C365.91489026 0.0828507 383.33467139 0.08567195 400.7544525 0.08866534 C401.55544389 0.08880263 402.35643529 0.08893992 403.18169915 0.08908137 C456.70054474 0.09828716 510.21938874 0.1141537 563.7382324 0.13100848 C563.78758166 5.79098894 563.82392769 11.45084483 563.84809569 17.11098894 C563.85816823 19.03744342 563.87182684 20.96388255 563.88911131 22.89028582 C563.91330481 25.65546099 563.92470276 28.42043447 563.9335449 31.18569598 C563.94386747 32.05032458 563.95419005 32.91495318 563.96482542 33.80578265 C563.96522346 35.91554368 563.86088483 38.02481566 563.7382324 40.13100848 C561.05533165 42.81390923 559.01371653 42.37300452 555.36696777 42.39302543 C554.46095358 42.3877714 553.5549394 42.38251737 552.62147024 42.37710413 C551.6601663 42.37941182 550.69886236 42.38171951 549.708428 42.38409713 C546.45029994 42.38943907 543.19236505 42.38037842 539.93424681 42.37151751 C537.58963362 42.37238872 535.24502061 42.37413813 532.90040866 42.37669584 C527.10886902 42.38071774 521.31738947 42.37538188 515.52585692 42.36621449 C508.59249002 42.35576513 501.65913778 42.35690126 494.72576493 42.3585034 C481.92899712 42.36113469 469.13224992 42.35443518 456.33548811 42.34246859 C443.66002372 42.33064573 430.9845679 42.32293896 418.30909804 42.32076296 C417.52179054 42.32062548 416.73448305 42.320488 415.92331776 42.32034636 C411.92519017 42.31966972 407.92706258 42.31906694 403.92893498 42.31849261 C375.58980822 42.31428869 347.25069268 42.30080536 318.91157225 42.28188738 C291.37576556 42.26352685 263.83996195 42.24935554 236.30415037 42.24087176 C235.45578967 42.2406087 234.60742896 42.24034565 233.73336036 42.24007463 C225.21398846 42.23743765 216.69461654 42.23488601 208.1752446 42.23239691 C190.8193788 42.22732411 173.4635132 42.2216816 156.10764769 42.21569476 C155.30960456 42.21542018 154.51156143 42.2151456 153.68933518 42.21486269 C100.3722962 42.19645277 47.05526364 42.16471986 -6.2617676 42.13100848 C-6.42768904 40.71338873 -6.59118308 39.29548476 -6.75368044 37.87746844 C-6.89064742 36.69312338 -6.89064742 36.69312338 -7.03038141 35.48485216 C-7.36491223 32.08173953 -7.39158474 28.70538512 -7.3945801 25.28725848 C-7.39553682 24.59209124 -7.39649355 23.896924 -7.39747927 23.18069109 C-7.39815249 21.73216314 -7.39635895 20.283632 -7.39213869 18.83511004 C-7.38671191 16.60815492 -7.39214593 14.3813955 -7.39848635 12.15444598 C-7.39782669 10.74038303 -7.39654787 9.32632021 -7.3945801 7.91225848 C-7.39345217 6.63415301 -7.39232424 5.35604754 -7.39116213 4.0392116 C-7.15702128 -1.22321449 -4.65383018 0.01276527 0 0 Z " fill="#69BBFD" transform="translate(946.2617675960064,922.8689915239811)"/>
<path d="M0 0 C0.91180658 -0.00115384 1.82361315 -0.00230769 2.76305023 -0.0034965 C5.84672985 -0.00616287 8.93035822 -0.0016408 12.01403522 0.00279331 C14.23576711 0.00235761 16.45749895 0.00148274 18.67923051 0.00020415 C24.80650568 -0.0020411 30.93376351 0.00198089 37.06103647 0.00698221 C42.98320824 0.01084454 48.90537805 0.01002266 54.82755076 0.00930037 C66.94547211 0.0079852 79.06338802 0.01133267 91.18130779 0.01731777 C103.18329298 0.02323045 115.1852759 0.02708284 127.18726254 0.02817059 C128.30573506 0.0282737 128.30573506 0.0282737 129.44680299 0.02837889 C133.23342027 0.02871721 137.02003756 0.0290186 140.80665485 0.02930576 C167.64224742 0.03140738 194.47783702 0.03814808 221.31342793 0.04760838 C247.38732099 0.05678956 273.46121325 0.06387476 299.53510761 0.06811619 C300.74021887 0.06831348 300.74021887 0.06831348 301.9696758 0.06851475 C310.03766609 0.06983325 318.10565639 0.07110907 326.1736467 0.07235361 C342.60975159 0.07488997 359.04585643 0.07771122 375.48196125 0.08070469 C376.23770242 0.08084198 376.99344359 0.08097927 377.77208601 0.08112072 C428.25762897 0.09032472 478.7431702 0.10619107 529.22871113 0.12304783 C529.31566063 6.70898336 529.31566063 6.70898336 527.75996113 9.85742283 C527.28018818 10.83521702 527.28018818 10.83521702 526.79072285 11.83276463 C526.26502705 12.84270481 526.26502705 12.84270481 525.72871113 13.87304783 C525.36922382 14.57534519 525.00973652 15.27764256 524.63935566 16.00122166 C520.23241025 24.35369743 514.80851918 31.43819179 507.22871113 37.12304783 C506.60586038 37.63643076 505.98300964 38.14981369 505.34128463 38.67875367 C496.93655872 44.42477694 482.81031403 42.40521996 473.04752827 42.38374424 C471.09754164 42.38676764 469.14755619 42.39065806 467.19757283 42.39533681 C461.85823781 42.4056008 456.51897006 42.40343908 451.17962956 42.39915621 C445.41408171 42.39668617 439.64854994 42.40570648 433.883008 42.4131937 C422.59639165 42.42593381 411.3097991 42.42773535 400.02317677 42.42539344 C390.8506488 42.42360978 381.67812804 42.42536094 372.50560093 42.42961788 C371.19971932 42.43021307 369.89383771 42.43080826 368.54838393 42.43142148 C365.89546838 42.43263324 363.24255284 42.43384737 360.58963729 42.43506386 C342.78245827 42.44300316 324.97528178 42.44677172 307.16810131 42.44274712 C306.47224441 42.44259074 305.77638751 42.44243436 305.05944403 42.44227325 C301.53276352 42.4414675 298.00608302 42.44062172 294.47940253 42.43975995 C293.77902152 42.43958886 293.07864051 42.43941777 292.35703584 42.4392415 C290.94069833 42.43889484 289.52436083 42.43854631 288.10802332 42.43819591 C266.05985788 42.43283631 244.0117324 42.44077777 221.96357441 42.45922947 C197.17960724 42.47994655 172.39566505 42.49064189 147.61168873 42.48665398 C134.49329128 42.48474043 121.37493026 42.48724475 108.25653934 42.50136852 C97.0921525 42.51326705 85.92782453 42.51470416 74.7634369 42.50257836 C69.06715767 42.49667971 63.37098621 42.49561765 57.67471409 42.50758076 C52.4601211 42.51840514 47.24572631 42.51537725 42.03114273 42.50131907 C40.14505211 42.49866271 38.25894613 42.50106804 36.37287055 42.50905494 C14.11332629 42.59677257 14.11332629 42.59677257 5.13886738 34.06836033 C4.19334003 33.10543064 4.19334003 33.10543064 3.22871113 32.12304783 C2.60867207 31.5017197 1.988633 30.88039158 1.34980488 30.24023533 C-5.77564394 22.63770462 -11.77128887 11.73716531 -11.77128887 1.12304783 C-7.83898751 -0.18771929 -4.09862217 -0.01258936 0 0 Z " fill="#93CEFC" transform="translate(967.7712888717651,985.8769521713257)"/>
<path d="M0 0 C0.67321136 -0.00230769 1.34642271 -0.00461538 2.04003441 -0.006993 C4.30613474 -0.01230593 6.57195346 -0.00329831 8.8380394 0.00558662 C10.47491324 0.00471482 12.11178682 0.00296431 13.7486589 0.00040829 C18.25468029 -0.00407421 22.76060702 0.00395082 27.26661634 0.01396441 C32.12276047 0.02258363 36.97889905 0.01967984 41.83504868 0.01815987 C50.2513239 0.01711005 58.66756817 0.02339679 67.0838356 0.03463554 C79.25241298 0.05087443 91.42097535 0.0560969 103.58956239 0.05861153 C123.33123037 0.06299116 143.07288185 0.07630755 162.81454086 0.09521675 C181.99422752 0.1135686 201.1739097 0.12772851 220.35360336 0.13623238 C222.1263024 0.13702055 222.1263024 0.13702055 223.93481353 0.13782464 C229.86342318 0.14043467 235.79203286 0.1429621 241.72064257 0.14544845 C290.92154976 0.16618931 340.12243904 0.20142214 389.32332993 0.24609566 C387.3995865 4.66168345 384.3401114 6.5907439 380.38582993 9.12109566 C379.70705795 9.56163277 379.02828598 10.00216988 378.32894516 10.45605659 C364.69316746 19.21926918 350.63168089 24.72526571 335.19832993 29.43359566 C334.03732773 29.7903437 334.03732773 29.7903437 332.85287094 30.15429878 C320.89489494 33.70255639 308.61623726 35.79990925 296.32332993 37.80859566 C295.0729393 38.01677925 293.82254868 38.22496284 292.53426743 38.43945503 C288.79924469 39.0561591 285.06500565 39.67130255 281.32332993 40.24609566 C280.30456772 40.40449928 279.28580551 40.56290291 278.23617172 40.72610664 C269.92243486 41.97271758 261.65010692 42.82953446 253.26082993 43.35547066 C252.59570389 43.39734253 251.93057785 43.4392144 251.24529648 43.48235512 C232.91789159 44.60153857 214.56955306 44.54978261 196.21493149 44.50683784 C191.30777096 44.4954443 186.40082743 44.5022308 181.49367428 44.51371193 C152.53257628 44.57128711 123.77998013 43.88668016 95.01082993 40.24609566 C93.6118308 40.07868008 92.21274107 39.91202004 90.8135643 39.74609566 C79.11122419 38.33616478 67.75366962 36.23602656 56.32332993 33.37109566 C55.3204393 33.12746284 54.31754868 32.88383003 53.28426743 32.63281441 C47.3377094 31.15001635 41.62140368 29.36484085 35.88631821 27.20556831 C33.56495233 26.3365487 31.23557337 25.53025408 28.88192368 24.75390816 C21.63553836 22.33758862 14.95498997 19.88668172 8.51864243 15.67578316 C6.30405525 14.23354311 4.04323636 13.02476747 1.69832993 11.80859566 C-2.99733458 9.24732411 -6.80450414 5.90724438 -10.67667007 2.24609566 C-7.09842323 0.02003144 -4.16522635 -0.00263289 0 0 Z " fill="#BCDFFD" transform="translate(1036.676670074463,1058.7539043426514)"/>
<path d="M0 0 C18.87110808 -0.02333532 37.74221324 -0.0409823 56.61333275 -0.05181217 C65.37503923 -0.05697378 74.13673676 -0.06401392 82.8984375 -0.07543945 C90.53297323 -0.08539041 98.16750248 -0.09185441 105.80204451 -0.09408849 C109.84641486 -0.0953949 113.89076666 -0.09847635 117.93513107 -0.10573006 C121.73861943 -0.11249674 125.54208153 -0.11461563 129.34557533 -0.11310768 C130.74443644 -0.11338372 132.14329839 -0.11538501 133.54215431 -0.11920547 C135.44633989 -0.12415274 137.35053942 -0.12239519 139.25473022 -0.12025452 C140.85588464 -0.12163721 140.85588464 -0.12163721 142.4893856 -0.12304783 C145 0 145 0 147 1 C148.27011511 4.81034533 148.16377604 8.39990281 148.17700195 12.37109375 C148.18357315 13.22502716 148.19014435 14.07896057 148.19691467 14.95877075 C148.21662963 17.78501471 148.22830343 20.61120569 148.23828125 23.4375 C148.24235678 24.40186981 148.2464323 25.36623962 148.25063133 26.35983276 C148.2714798 31.45961289 148.2857894 36.55936617 148.29516602 41.65917969 C148.30625552 46.9355478 148.34068804 52.21149708 148.38033772 57.48771667 C148.40642469 61.53854174 148.41485055 65.58926554 148.41844749 69.64016724 C148.42333041 71.58589522 148.43499252 73.53161818 148.45348549 75.4772644 C148.47771918 78.19482166 148.47694162 80.91127504 148.4699707 83.62890625 C148.48918579 84.83995529 148.48918579 84.83995529 148.50878906 86.07546997 C148.45847756 91.43884449 148.45847756 91.43884449 146.36520386 94.00091553 C143.32968222 95.28314857 140.98531684 95.36713394 137.68676758 95.35644531 C135.77007011 95.36094696 135.77007011 95.36094696 133.81465149 95.36553955 C132.42460728 95.35353656 131.03456715 95.34105371 129.64453125 95.328125 C128.21775003 95.32506646 126.79096582 95.32319106 125.36418152 95.32244873 C122.37914545 95.31785209 119.39438013 95.30344741 116.40942383 95.28125 C112.57576809 95.25289109 108.74232478 95.24203018 104.9085741 95.2375679 C101.96528484 95.23342066 99.02203884 95.2236103 96.07877159 95.21169281 C94.66452062 95.20598192 93.25026547 95.20122593 91.83600807 95.19742584 C89.86566306 95.19058394 87.89534919 95.17605761 85.92504883 95.16113281 C84.80238113 95.15430481 83.67971344 95.14747681 82.52302551 95.14044189 C80 95 80 95 79 94 C78.90490441 91.38311559 78.87444 88.792711 78.88647461 86.17553711 C78.88632858 85.35609116 78.88618256 84.5366452 78.8860321 83.69236755 C78.88673148 80.97066647 78.89452499 78.24903295 78.90234375 75.52734375 C78.90420784 73.64547259 78.90563179 71.76360094 78.90663147 69.88172913 C78.91045733 64.91851471 78.92028819 59.95532936 78.93133545 54.99212646 C78.9415481 49.93160394 78.94612878 44.87107673 78.95117188 39.81054688 C78.9619104 29.87368512 78.97898764 19.93684497 79 10 C75.37 10 71.74 10 68 10 C67.99120064 11.55308365 67.99120064 11.55308365 67.98222351 13.13754272 C67.92509371 22.87916145 67.85238371 32.62055484 67.76428509 42.3619442 C67.7194933 47.37051165 67.68025687 52.3789961 67.65356445 57.38769531 C67.62761901 62.21834786 67.58727956 67.04868248 67.53681374 71.87913895 C67.52008549 73.72514527 67.50860846 75.57120666 67.50238609 77.41727829 C67.49280938 79.99646352 67.46482904 82.57482434 67.43237305 85.15380859 C67.43452568 86.30718971 67.43452568 86.30718971 67.4367218 87.48387146 C67.39872742 89.60848999 67.39872742 89.60848999 67 93 C63.51169676 95.32553549 62.13580188 95.25275066 58.015625 95.25878906 C56.78424805 95.26509338 55.55287109 95.27139771 54.28417969 95.27789307 C52.93945167 95.27431326 51.59472496 95.2702113 50.25 95.265625 C48.87141857 95.26697231 47.49283761 95.2689134 46.11425781 95.27142334 C43.22586541 95.27437151 40.33759676 95.27008693 37.44921875 95.26074219 C33.7468277 95.24934771 30.04472661 95.25590884 26.34234619 95.26788712 C23.49590876 95.27511407 20.64954008 95.27281397 17.80310059 95.26763153 C16.43794724 95.26629734 15.07278766 95.26793469 13.7076416 95.27259064 C11.79988728 95.27766927 9.89211108 95.26855616 7.984375 95.25878906 C6.89866211 95.25719788 5.81294922 95.25560669 4.69433594 95.25396729 C2 95 2 95 -1 93 C-1.29144356 90.08014311 -1.38847264 87.37274626 -1.35644531 84.45117188 C-1.35951187 83.12419029 -1.35951187 83.12419029 -1.36264038 81.770401 C-1.36565676 78.83630939 -1.34714562 75.90277513 -1.328125 72.96875 C-1.32506876 70.93615864 -1.32319161 68.9035652 -1.32244873 66.87097168 C-1.31784027 62.60709646 -1.30339362 58.34340953 -1.28125 54.07958984 C-1.25296723 48.60483856 -1.24203911 43.13023578 -1.2375679 37.6554184 C-1.23341731 33.45707707 -1.22360285 29.25876598 -1.21169281 25.06044006 C-1.20598198 23.04134871 -1.20122597 21.02225443 -1.19742584 19.00315857 C-1.1905755 16.18499607 -1.17694884 13.36695276 -1.16113281 10.54882812 C-1.16001495 9.70824356 -1.15889709 8.867659 -1.15774536 8.00160217 C-1.11469091 2.22938181 -1.11469091 2.22938181 0 0 Z " fill="#FCFDFE" transform="translate(1152,750)"/>
<path d="M0 0 C5.92650126 -0.04939701 11.85288297 -0.08571817 17.77954102 -0.10986328 C19.79616381 -0.11992773 21.81277199 -0.13358047 23.8293457 -0.15087891 C26.72611089 -0.17510769 29.62268331 -0.18647859 32.51953125 -0.1953125 C33.42274612 -0.20563507 34.325961 -0.21595764 35.25654602 -0.22659302 C36.09719101 -0.22674408 36.937836 -0.22689514 37.80395508 -0.22705078 C38.54341873 -0.231492 39.28288239 -0.23593323 40.04475403 -0.24050903 C42 0 42 0 45 2 C45.39199829 4.46691895 45.39199829 4.46691895 45.41650391 7.61132812 C45.43307037 8.78594604 45.44963684 9.96056396 45.46670532 11.17077637 C45.46995819 12.44473267 45.47321106 13.71868896 45.4765625 15.03125 C45.50036155 17.02015537 45.52416483 19.0090607 45.5482235 20.99796295 C45.57825493 23.7889027 45.59465228 26.57986376 45.61126709 29.37091064 C45.64277123 34.25517218 45.69379669 39.13925614 45.74765015 44.02331543 C45.77496052 46.6252277 45.79627502 49.22721077 45.81118774 51.82922363 C45.82144989 53.00384155 45.83171204 54.17845947 45.84228516 55.38867188 C45.84878082 56.4263269 45.85527649 57.46398193 45.86196899 58.53308105 C45.83665893 61.00377422 45.83665893 61.00377422 47 63 C46.66666667 65 46.33333333 67 46 69 C46.33 69.66 46.66 70.32 47 71 C46.9129796 72.71233688 46.75902838 74.42175406 46.5625 76.125 C46.46066406 77.03507813 46.35882812 77.94515625 46.25390625 78.8828125 C46.17011719 79.58148437 46.08632813 80.28015625 46 81 C54.43813143 86.07317166 67.7443469 84.13812035 77.30419922 84.08178711 C79.17530617 84.07718727 79.17530617 84.07718727 81.08421326 84.07249451 C83.76483391 84.06539678 86.44537639 84.05651534 89.12597275 84.04459953 C93.37190737 84.02607799 97.61783423 84.01664944 101.86380005 84.00868225 C113.9261639 83.98469647 125.98847645 83.9485734 138.05078125 83.90405273 C144.73765622 83.87945193 151.42451189 83.86212546 158.11142552 83.85249335 C162.32585049 83.84598591 166.54011364 83.83050595 170.75448298 83.80817592 C173.99369828 83.79362623 177.23292474 83.79226017 180.47216797 83.78881836 C182.20540062 83.77567596 182.20540062 83.77567596 183.97364807 83.76226807 C189.98670069 83.76955491 195.28042692 84.0609826 201 86 C202.50149828 89.00299655 202.18438425 92.08476691 202.1875 95.375 C202.19974609 96.04789063 202.21199219 96.72078125 202.22460938 97.4140625 C202.24483278 104.26305673 202.24483278 104.26305673 200 107 C195.30730361 108.33058906 190.38953477 108.34570496 185.54443359 108.55639648 C184.58511114 108.59857772 183.62578869 108.64075895 182.63739586 108.68421841 C170.20394778 109.1757909 157.76732238 109.12819289 145.32626772 109.10139394 C141.85369356 109.09502276 138.38111793 109.09454597 134.90853882 109.09336853 C128.37147565 109.0902949 121.83442978 109.08213666 115.29737413 109.07201904 C107.83872533 109.06073256 100.38007559 109.0553163 92.92142034 109.05032361 C77.61427031 109.03994937 62.30713741 109.02242921 47 109 C47.01160156 109.69867187 47.02320313 110.39734375 47.03515625 111.1171875 C47.04417969 112.02726563 47.05320312 112.93734375 47.0625 113.875 C47.07410156 114.77992188 47.08570313 115.68484375 47.09765625 116.6171875 C47 119 47 119 46 121 C45.91550372 122.7404417 45.89276976 124.48409722 45.90234375 126.2265625 C45.90556641 127.2578125 45.90878906 128.2890625 45.91210938 129.3515625 C45.92048828 130.43179688 45.92886719 131.51203125 45.9375 132.625 C45.94201172 133.71296875 45.94652344 134.8009375 45.95117188 135.921875 C45.96298224 138.61463789 45.97945222 141.30729188 46 144 C49.38007093 145.69003547 53.21873987 145.13724436 56.93659115 145.12863445 C57.87842419 145.13038749 58.82025723 145.13214053 59.79063067 145.13394669 C62.98249997 145.13864065 66.17432439 145.13613252 69.36619568 145.13371277 C71.6632979 145.13557903 73.9603998 145.13787899 76.25750118 145.14057809 C82.59787086 145.1467253 88.9382274 145.14655909 95.27859938 145.14538372 C101.4053089 145.14471738 107.5320152 145.14968428 113.65872282 145.1539966 C127.74432696 145.16368343 141.82992747 145.16648134 155.91553455 145.16705366 C166.78979591 145.16751262 177.66405583 145.16956792 188.53831673 145.17275429 C191.66471849 145.17365178 194.79112025 145.1745416 197.91752201 145.17542917 C199.0832589 145.17576074 199.0832589 145.17576074 200.27254604 145.17609901 C222.14175448 145.18225588 244.01096243 145.1861993 265.88017178 145.18575573 C267.11773999 145.18573236 267.11773999 145.18573236 268.38030959 145.18570852 C272.56230199 145.18562541 276.7442944 145.18552637 280.92628681 145.18542381 C281.75689593 145.18540387 282.58750505 145.18538392 283.44328415 145.18536337 C285.12297886 145.18532294 286.80267358 145.18528114 288.4823683 145.18523798 C314.62407466 145.18462503 340.76576805 145.19213435 366.9074707 145.20581055 C396.2542216 145.22115704 425.60096399 145.22977764 454.94771916 145.22884732 C458.07443527 145.22877269 461.20115139 145.22872399 464.32786751 145.22869301 C465.09778706 145.22868135 465.8677066 145.2286697 466.66095705 145.22865769 C479.0735318 145.22862687 491.48609533 145.23502411 503.89866675 145.24362527 C516.36414823 145.25208471 528.82961322 145.25310516 541.29509597 145.24651595 C548.05381139 145.24313632 554.81248351 145.24324548 561.5711956 145.2518692 C567.74986 145.25967208 573.92845078 145.25836711 580.10711325 145.24958507 C582.35069933 145.24803626 584.59429073 145.24991745 586.83787053 145.25544515 C589.87119404 145.26242772 592.90425367 145.25727318 595.93756771 145.24888897 C596.82273539 145.25385715 597.70790306 145.25882533 598.619894 145.26394406 C603.60601985 145.24481763 603.60601985 145.24481763 608 143 C608 143.66 608 144.32 608 145 C609.62484618 143.9665061 609.62484618 143.9665061 611 142 C611.33079338 139.42182889 611.4883563 137.07079833 611.51171875 134.48828125 C611.52966995 133.76005661 611.54762115 133.03183197 611.56611633 132.28153992 C611.62024213 129.95858529 611.6541208 127.63583634 611.6875 125.3125 C611.72067125 123.73629949 611.75516073 122.16012612 611.79101562 120.58398438 C611.8759693 116.72280464 611.94276876 112.86168613 612 109 C610.97843307 109.00222061 609.95686615 109.00444122 608.90434265 109.00672913 C522.2519524 109.18899049 522.2519524 109.18899049 488.69863892 108.73654175 C486.19721446 108.7039255 483.6957193 108.67633358 481.19418335 108.65383911 C477.78399212 108.62133972 474.37468166 108.56980516 470.96484375 108.51171875 C469.9817926 108.50532379 468.99874146 108.49892883 467.98590088 108.49234009 C467.09844177 108.47255096 466.21098267 108.45276184 465.29663086 108.43237305 C464.15066689 108.41571846 464.15066689 108.41571846 462.98155212 108.39872742 C460.46303667 107.89195237 459.57232594 106.99614362 458 105 C456.91911315 101.31373848 456.83647392 97.70123831 456.8125 93.875 C456.79832031 92.84117187 456.78414062 91.80734375 456.76953125 90.7421875 C457 88 457 88 459 85 C470.21746413 82.60017963 483.00447973 83.88316093 494.42024994 83.92483521 C497.98405045 83.93772488 501.54781329 83.94414497 505.1116333 83.94897461 C512.65777269 83.96032518 520.20388034 83.97961286 527.75 84 C536.53990698 84.0236034 545.32979696 84.04395149 554.11972809 84.05593872 C557.63524206 84.06243233 561.15070254 84.07493117 564.66619873 84.08764648 C566.80448357 84.09127614 568.94276891 84.09462823 571.08105469 84.09765625 C572.06174927 84.10282257 573.04244385 84.10798889 574.05285645 84.11331177 C574.94410217 84.11338226 575.8353479 84.11345276 576.75360107 84.11352539 C577.53000317 84.115746 578.30640526 84.11796661 579.10633469 84.12025452 C581.08906923 84.11781098 581.08906923 84.11781098 583 83 C584.66690067 83.33216119 586.33350845 83.66579228 588 84 C590.61719828 84.11858749 593.19607272 84.18503864 595.8125 84.1875 C596.48603516 84.19974609 597.15957031 84.21199219 597.85351562 84.22460938 C603.10832737 84.23969496 606.64951998 83.33762001 612 82 C612.33 62.86 612.66 43.72 613 24 C613.33 24 613.66 24 614 24 C614 44.79 614 65.58 614 87 C563.18 87.33 512.36 87.66 460 88 C460 93.28 460 98.56 460 104 C462.74211463 105.37105731 464.94042954 105.14051319 468.01101685 105.15821838 C469.29271759 105.1680072 470.57441833 105.17779602 471.8949585 105.18788147 C473.32336388 105.19378606 474.75176966 105.19959648 476.18017578 105.20532227 C477.67799146 105.21489808 479.17580441 105.22490798 480.6736145 105.23532104 C484.74772894 105.26240834 488.82185501 105.28339715 492.89600992 105.30332303 C497.15081825 105.32515904 501.40559057 105.35255937 505.66036987 105.37937927 C513.72095775 105.42933848 521.78156557 105.47426531 529.84219253 105.51740164 C539.0174206 105.56674646 548.19261256 105.62167479 557.36780572 105.67708123 C576.2451703 105.79095081 595.12256894 105.89777899 614 106 C614.02464638 111.82071622 614.0428343 117.64140234 614.05493164 123.4621582 C614.05997267 125.44393441 614.06680538 127.42570689 614.07543945 129.4074707 C614.08751515 132.24952109 614.09323045 135.09152247 614.09765625 137.93359375 C614.10281754 138.82525742 614.10797882 139.71692108 614.11329651 140.63560486 C614.11349177 142.75740601 614.0621003 144.8791078 614 147 C612.09388592 148.90611408 609.27495399 148.12405035 606.7382324 148.13100848 C605.37045757 148.12706796 605.37045757 148.12706796 603.97505093 148.12304783 C602.52976066 148.1247786 602.52976066 148.1247786 601.05527261 148.12654433 C597.78361202 148.12921918 594.51199935 148.12468173 591.24034119 148.12025452 C588.88834181 148.12069004 586.53634247 148.1215646 584.1843434 148.12284368 C579.04849479 148.12462132 573.9126566 148.12326398 568.77680969 148.11920547 C561.13991188 148.11318726 553.50302139 148.1128681 545.86612163 148.11374746 C533.02161019 148.11506352 520.17710387 148.1117118 507.33259392 148.10573006 C494.60885531 148.0998197 481.88511883 148.09596546 469.16137886 148.09487724 C468.37122994 148.0948085 467.58108101 148.09473976 466.76698818 148.09466894 C462.75447154 148.09433062 458.7419549 148.09402923 454.72943825 148.09374207 C426.28438642 148.09163981 397.83933737 148.08489732 369.39428711 148.07543945 C341.75463882 148.06625997 314.1149913 148.05917393 286.4753418 148.05493164 C285.62386145 148.05480011 284.77238111 148.05466859 283.89509833 148.05453308 C275.34444 148.05321459 266.79378166 148.05193877 258.24312332 148.05069422 C240.82334214 148.04815778 223.40356101 148.04533653 205.98377991 148.04234314 C205.18278851 148.04220585 204.38179711 148.04206856 203.55653325 148.04192711 C150.03768765 148.03272132 96.51884369 148.01679886 43 148 C43 134.14 43 120.28 43 106 C94.48 105.67 145.96 105.34 199 105 C199 99.39 199 93.78 199 88 C147.52 87.67 96.04 87.34 43 87 C43 58.95 43 30.9 43 2 C29.47 2 15.94 2 2 2 C1.34 1.34 0.68 0.68 0 0 Z " fill="#81B3E8" transform="translate(896,755)"/>
<path d="M0 0 C0.33 0 0.66 0 1 0 C1 20.79 1 41.58 1 63 C-49.82 63.33 -100.64 63.66 -153 64 C-153 69.28 -153 74.56 -153 80 C-150.25788537 81.37105731 -148.05957046 81.14051319 -144.98898315 81.15821838 C-143.70728241 81.1680072 -142.42558167 81.17779602 -141.1050415 81.18788147 C-139.67663612 81.19378606 -138.24823034 81.19959648 -136.81982422 81.20532227 C-135.32200854 81.21489808 -133.82419559 81.22490798 -132.3263855 81.23532104 C-128.25227106 81.26240834 -124.17814499 81.28339715 -120.10399008 81.30332303 C-115.84918175 81.32515904 -111.59440943 81.35255937 -107.33963013 81.37937927 C-99.27904225 81.42933848 -91.21843443 81.47426531 -83.15780747 81.51740164 C-73.9825794 81.56674646 -64.80738744 81.62167479 -55.63219428 81.67708123 C-36.75482819 81.79095082 -17.87742897 81.89704184 1 82 C1 95.53 1 109.06 1 123 C-174.56 123 -350.12 123 -531 123 C-530.505 122.01 -530.505 122.01 -530 121 C-528.896603 121.00075944 -527.793206 121.00151888 -526.65637273 121.00230134 C-478.04739212 121.03562644 -429.4384108 121.06648377 -380.829422 121.08468628 C-380.09395317 121.08496239 -379.35848435 121.08523851 -378.60072859 121.08552299 C-362.61850284 121.09150826 -346.63627696 121.0970487 -330.6540509 121.10213066 C-322.8168119 121.10462542 -314.97957293 121.10721851 -307.14233398 121.10986328 C-306.36241838 121.1101248 -305.58250277 121.11038632 -304.77895335 121.11065576 C-279.48197339 121.11918436 -254.18500235 121.13421137 -228.88802779 121.15259444 C-202.90051931 121.17144509 -176.91301577 121.18376751 -150.92550057 121.18782998 C-147.25821346 121.18840632 -143.59092638 121.1890576 -139.9236393 121.18975449 C-139.20183702 121.18988933 -138.48003473 121.19002418 -137.73635966 121.19016311 C-126.09915352 121.19253012 -114.46196261 121.20181584 -102.82476269 121.21366407 C-91.1364619 121.22541757 -79.44818 121.22977887 -67.75987311 121.22700275 C-61.422425 121.22571632 -55.08502171 121.22774732 -48.74758148 121.23841095 C-42.95372644 121.24808924 -37.1599467 121.24867047 -31.36608831 121.24179779 C-29.26241342 121.24094742 -27.15873397 121.24353026 -25.05506816 121.24976636 C-22.21042176 121.25771336 -19.36605246 121.25351496 -16.52141094 121.24609566 C-15.27703002 121.2539767 -15.27703002 121.2539767 -14.0075101 121.26201695 C-10.14320892 121.23901196 -8.2919834 121.1946556 -5 119 C-5 119.66 -5 120.32 -5 121 C-3.37515382 119.9665061 -3.37515382 119.9665061 -2 118 C-1.66920662 115.42182889 -1.5116437 113.07079833 -1.48828125 110.48828125 C-1.47033005 109.76005661 -1.45237885 109.03183197 -1.43388367 108.28153992 C-1.37975787 105.95858529 -1.3458792 103.63583634 -1.3125 101.3125 C-1.27932875 99.73629949 -1.24483927 98.16012612 -1.20898438 96.58398438 C-1.1240307 92.72280464 -1.05723124 88.86168613 -1 85 C-2.02156693 85.00222061 -3.04313385 85.00444122 -4.09565735 85.00672913 C-90.7480476 85.18899049 -90.7480476 85.18899049 -124.30136108 84.73654175 C-126.80278554 84.7039255 -129.3042807 84.67633358 -131.80581665 84.65383911 C-135.21600788 84.62133972 -138.62531834 84.56980516 -142.03515625 84.51171875 C-143.0182074 84.50532379 -144.00125854 84.49892883 -145.01409912 84.49234009 C-145.90155823 84.47255096 -146.78901733 84.45276184 -147.70336914 84.43237305 C-148.84933311 84.41571846 -148.84933311 84.41571846 -150.01844788 84.39872742 C-152.53696333 83.89195237 -153.42767406 82.99614362 -155 81 C-156.08088685 77.31373848 -156.16352608 73.70123831 -156.1875 69.875 C-156.20167969 68.84117187 -156.21585938 67.80734375 -156.23046875 66.7421875 C-156 64 -156 64 -154 61 C-142.78253587 58.60017963 -129.99552027 59.88316093 -118.57975006 59.92483521 C-115.01594955 59.93772488 -111.45218671 59.94414497 -107.8883667 59.94897461 C-100.34222731 59.96032518 -92.79611966 59.97961286 -85.25 60 C-76.46009302 60.0236034 -67.67020304 60.04395149 -58.88027191 60.05593872 C-55.36475794 60.06243233 -51.84929746 60.07493117 -48.33380127 60.08764648 C-46.19551643 60.09127614 -44.05723109 60.09462823 -41.91894531 60.09765625 C-40.93825073 60.10282257 -39.95755615 60.10798889 -38.94714355 60.11331177 C-38.05589783 60.11338226 -37.1646521 60.11345276 -36.24639893 60.11352539 C-35.46999683 60.115746 -34.69359474 60.11796661 -33.89366531 60.12025452 C-31.91093077 60.11781098 -31.91093077 60.11781098 -30 59 C-28.33309933 59.33216119 -26.66649155 59.66579228 -25 60 C-22.38280172 60.11858749 -19.80392728 60.18503864 -17.1875 60.1875 C-16.51396484 60.19974609 -15.84042969 60.21199219 -15.14648438 60.22460938 C-9.89167263 60.23969496 -6.35048002 59.33762001 -1 58 C-0.67 38.86 -0.34 19.72 0 0 Z " fill="#5CA4E9" transform="translate(1509,779)"/>
<path d="M0 0 C1.98 0.495 1.98 0.495 4 1 C5.58712529 11.14945781 6.28718572 20.93698266 6.23046875 31.2265625 C6.22927078 32.63129636 6.22882508 34.03603103 6.2290802 35.44076538 C6.22753325 38.35672162 6.21938298 41.27255198 6.20581055 44.18847656 C6.1887919 47.88722903 6.18499838 51.58584467 6.18575573 55.28463173 C6.1854812 58.17604833 6.17995571 61.06743628 6.17275429 63.95884323 C6.1681205 65.9730978 6.16631072 67.98735826 6.16459656 70.00161743 C6.13346273 76.11117117 6.0106975 82.20898899 5.67700195 88.31005859 C5.6205098 89.35841888 5.56401764 90.40677917 5.5058136 91.48690796 C5 94 5 94 2 96 C-4.73308396 97.45964384 -11.62677759 97.14396207 -18.484375 97.1328125 C-19.776922 97.13376923 -21.06946899 97.13472595 -22.40118408 97.13571167 C-25.12440193 97.1371792 -27.84758679 97.13506322 -30.57080078 97.13037109 C-34.06001255 97.12465158 -37.54914776 97.12797276 -41.03835678 97.13394356 C-44.37453569 97.13842253 -47.71069391 97.13528923 -51.046875 97.1328125 C-52.92653961 97.13584885 -52.92653961 97.13584885 -54.84417725 97.13894653 C-56.00258118 97.13579437 -57.16098511 97.13264221 -58.35449219 97.12939453 C-59.88502228 97.12820114 -59.88502228 97.12820114 -61.44647217 97.12698364 C-64 97 -64 97 -67 96 C-67 67.95 -67 39.9 -67 11 C-69.64 11 -72.28 11 -75 11 C-75.33 37.07 -75.66 63.14 -76 90 C-75.34 90.33 -74.68 90.66 -74 91 C-75.09592866 93.94558188 -75.57194156 95.11069909 -78 97 C-82.77007223 97.93554853 -87.55746308 97.77053036 -92.3984375 97.69140625 C-93.83565906 97.68782727 -95.27288772 97.68647212 -96.71011353 97.6872406 C-99.72157787 97.68255116 -102.73196965 97.65773483 -105.74316406 97.61743164 C-109.59227661 97.56655157 -113.44020811 97.55498629 -117.28961754 97.55726719 C-120.25807862 97.55644888 -123.22628438 97.53995291 -126.19466019 97.51826286 C-127.61313573 97.50875242 -129.03164005 97.50281229 -130.45014572 97.50058174 C-132.43871276 97.49403282 -134.42716905 97.46533818 -136.41552734 97.43579102 C-137.54485687 97.42435562 -138.6741864 97.41292023 -139.83773804 97.40113831 C-143.41442127 96.94742996 -145.88419238 95.7728023 -149 94 C-148.67 93.01 -148.34 92.02 -148 91 C-148.3261012 88.66564494 -148.66106737 86.33252658 -149 84 C-149.15901107 80.63569388 -149.16357913 77.27392175 -149.16796875 73.90625 C-149.17202225 72.93333008 -149.17607574 71.96041016 -149.18025208 70.95800781 C-149.18969102 67.805305 -149.18965007 64.65271501 -149.1875 61.5 C-149.1882251 60.43096436 -149.1889502 59.36192871 -149.18969727 58.26049805 C-149.18835993 40.43245735 -148.56468133 22.7607977 -147 5 C-146.67 5 -146.34 5 -146 5 C-145.67 34.04 -145.34 63.08 -145 93 C-142.28503534 94.35748233 -140.15266427 94.12717801 -137.11328125 94.12939453 C-135.26126099 94.13412277 -135.26126099 94.13412277 -133.37182617 94.13894653 C-132.01871709 94.13715669 -130.66560833 94.13510573 -129.3125 94.1328125 C-127.93009423 94.13348587 -126.54768857 94.13445618 -125.1652832 94.13571167 C-122.26675287 94.13718707 -119.36825332 94.13503914 -116.46972656 94.13037109 C-112.75046843 94.12467389 -109.03128246 94.12795373 -105.31202698 94.13394356 C-102.45706639 94.13755342 -99.60212297 94.13640862 -96.74716187 94.13381577 C-95.37560009 94.13314767 -94.00403677 94.13397082 -92.63247681 94.13629532 C-90.71722442 94.13882874 -88.80196658 94.13428419 -86.88671875 94.12939453 C-85.79576904 94.12859894 -84.70481934 94.12780334 -83.58081055 94.12698364 C-81.01296224 94.17428025 -81.01296224 94.17428025 -79 93 C-78.98969254 92.03391312 -78.97938507 91.06782623 -78.96876526 90.07246399 C-78.87097706 80.96466658 -78.76823789 71.85693666 -78.66066074 62.74924946 C-78.60551421 58.06698734 -78.55210755 53.38471889 -78.50268555 48.70239258 C-78.45491987 44.18306835 -78.40257288 39.66381821 -78.34705925 35.14458275 C-78.32669092 33.42105138 -78.30796887 31.69749973 -78.29092598 29.97393227 C-78.26675941 27.55847482 -78.23672206 25.14315596 -78.20532227 22.7277832 C-78.1995668 22.01640198 -78.19381134 21.30502075 -78.18788147 20.57208252 C-78.13287625 16.84556378 -77.7398161 13.6990805 -77 10 C-73.37 10 -69.74 10 -66 10 C-65.67 37.72 -65.34 65.44 -65 94 C-49.2528125 94.061875 -49.2528125 94.061875 -33.1875 94.125 C-29.87356201 94.14320801 -26.55962402 94.16141602 -23.14526367 94.18017578 C-20.52783368 94.18601526 -17.91040188 94.19111211 -15.29296875 94.1953125 C-14.27218987 94.20315262 -14.27218987 94.20315262 -13.23078918 94.21115112 C-11.22576454 94.22578 -9.22065415 94.22667771 -7.21557617 94.22705078 C-5.52013924 94.23371262 -5.52013924 94.23371262 -3.79045105 94.24050903 C-0.78969509 94.2073313 -0.78969509 94.2073313 2 92 C2.28611093 89.06942931 2.37805361 86.35112474 2.34057617 83.41943359 C2.34101425 82.53156662 2.34145233 81.64369965 2.34190369 80.72892761 C2.33980852 77.78520957 2.3164433 74.84205642 2.29296875 71.8984375 C2.28737538 69.86105663 2.28310406 67.82367174 2.28010559 65.7862854 C2.26863643 60.41692008 2.23915143 55.04779719 2.20599365 49.67852783 C2.17533737 44.20238525 2.16160977 38.72620361 2.14648438 33.25 C2.11428372 22.49989333 2.06306238 11.7499668 2 1 C1.01 0.505 1.01 0.505 0 0 Z " fill="#4898EA" transform="translate(1297,750)"/>
<path d="M0 0 C0.33 0 0.66 0 1 0 C1 20.79 1 41.58 1 63 C-49.82 63.33 -100.64 63.66 -153 64 C-153 69.28 -153 74.56 -153 80 C-152.34 80.33 -151.68 80.66 -151 81 C-151 81.66 -151 82.32 -151 83 C-150.34 83.33 -149.68 83.66 -149 84 C-151.86724686 83.42655063 -152.8614515 83.1385485 -155 81 C-156.01444908 77.29112248 -156.163487 73.70747503 -156.1875 69.875 C-156.20167969 68.84117187 -156.21585938 67.80734375 -156.23046875 66.7421875 C-156 64 -156 64 -154 61 C-142.78253587 58.60017963 -129.99552027 59.88316093 -118.57975006 59.92483521 C-115.01594955 59.93772488 -111.45218671 59.94414497 -107.8883667 59.94897461 C-100.34222731 59.96032518 -92.79611966 59.97961286 -85.25 60 C-76.46009302 60.0236034 -67.67020304 60.04395149 -58.88027191 60.05593872 C-55.36475794 60.06243233 -51.84929746 60.07493117 -48.33380127 60.08764648 C-46.19551643 60.09127614 -44.05723109 60.09462823 -41.91894531 60.09765625 C-40.93825073 60.10282257 -39.95755615 60.10798889 -38.94714355 60.11331177 C-38.05589783 60.11338226 -37.1646521 60.11345276 -36.24639893 60.11352539 C-35.46999683 60.115746 -34.69359474 60.11796661 -33.89366531 60.12025452 C-31.91093077 60.11781098 -31.91093077 60.11781098 -30 59 C-28.33309933 59.33216119 -26.66649155 59.66579228 -25 60 C-22.38280172 60.11858749 -19.80392728 60.18503864 -17.1875 60.1875 C-16.51396484 60.19974609 -15.84042969 60.21199219 -15.14648438 60.22460938 C-9.89167263 60.23969496 -6.35048002 59.33762001 -1 58 C-0.67 38.86 -0.34 19.72 0 0 Z " fill="#4E97E7" transform="translate(1509,779)"/>
<path d="M0 0 C5.92650126 -0.04939701 11.85288297 -0.08571817 17.77954102 -0.10986328 C19.79616381 -0.11992773 21.81277199 -0.13358047 23.8293457 -0.15087891 C26.72611089 -0.17510769 29.62268331 -0.18647859 32.51953125 -0.1953125 C33.42274612 -0.20563507 34.325961 -0.21595764 35.25654602 -0.22659302 C36.09719101 -0.22674408 36.937836 -0.22689514 37.80395508 -0.22705078 C38.54341873 -0.231492 39.28288239 -0.23593323 40.04475403 -0.24050903 C42 0 42 0 45 2 C45.39199829 4.46691895 45.39199829 4.46691895 45.41650391 7.61132812 C45.43307037 8.78594604 45.44963684 9.96056396 45.46670532 11.17077637 C45.46995819 12.44473267 45.47321106 13.71868896 45.4765625 15.03125 C45.50036155 17.02015537 45.52416483 19.0090607 45.5482235 20.99796295 C45.57825493 23.7889027 45.59465228 26.57986376 45.61126709 29.37091064 C45.64277123 34.25517218 45.69379669 39.13925614 45.74765015 44.02331543 C45.77496052 46.6252277 45.79627502 49.22721077 45.81118774 51.82922363 C45.82144989 53.00384155 45.83171204 54.17845947 45.84228516 55.38867188 C45.84878082 56.4263269 45.85527649 57.46398193 45.86196899 58.53308105 C45.83665893 61.00377422 45.83665893 61.00377422 47 63 C46.66666667 65 46.33333333 67 46 69 C46.33 69.66 46.66 70.32 47 71 C46.9129796 72.71233688 46.75902838 74.42175406 46.5625 76.125 C46.46066406 77.03507813 46.35882812 77.94515625 46.25390625 78.8828125 C46.17011719 79.58148437 46.08632813 80.28015625 46 81 C54.46092884 86.08569485 67.81622739 84.13779609 77.39941406 84.08178711 C78.65645645 84.07872055 79.91349884 84.07565399 81.20863342 84.07249451 C83.90891099 84.0653975 86.60911089 84.05651777 89.30936432 84.04459953 C93.57885479 84.02610157 97.84833749 84.0166567 102.11785889 84.00868225 C114.24641503 83.98467491 126.37491999 83.94842005 138.50341797 83.90405273 C145.22759108 83.87953433 151.95174526 83.86215987 158.67595649 83.85249335 C162.92215472 83.8459513 167.16819491 83.83039984 171.41433859 83.80817592 C174.66065336 83.79373605 177.90697806 83.79227016 181.15332031 83.78881836 C182.3303804 83.78005676 183.50744049 83.77129517 184.72016907 83.76226807 C185.78811203 83.76357224 186.85605499 83.7648764 187.95635986 83.76622009 C189.35325483 83.76150649 189.35325483 83.76150649 190.7783699 83.75669765 C193 84 193 84 195 86 C145.17 86 95.34 86 44 86 C43.67 58.61 43.34 31.22 43 3 C22.705 2.505 22.705 2.505 2 2 C1.34 1.34 0.68 0.68 0 0 Z " fill="#4697EC" transform="translate(896,755)"/>
<path d="M0 0 C0.66890762 -0.00204437 1.33781525 -0.00408875 2.0269928 -0.00619507 C4.2257979 -0.00918975 6.42384331 0.0092314 8.62255859 0.02832031 C10.15522069 0.03138 11.68788557 0.03325453 13.22055054 0.03399658 C16.42660223 0.03859115 19.63240156 0.05298618 22.83837891 0.07519531 C26.94869393 0.10352474 31.05881085 0.11441268 35.16921425 0.11887741 C38.33132915 0.12303244 41.49340403 0.13284985 44.6554985 0.1447525 C46.17136694 0.15044995 47.6872392 0.15521039 49.20311356 0.15901947 C51.31907166 0.16588981 53.43487323 0.17952465 55.55078125 0.1953125 C57.35683334 0.2055545 57.35683334 0.2055545 59.19937134 0.21600342 C62.14599609 0.35644531 62.14599609 0.35644531 65.14599609 1.35644531 C64.81599609 2.01644531 64.48599609 2.67644531 64.14599609 3.35644531 C63.28013382 3.34978348 62.41427155 3.34312164 61.52217102 3.33625793 C53.35629839 3.27610966 45.19050033 3.230452 37.02445698 3.2010088 C32.82634837 3.18536278 28.62842305 3.16414411 24.43041992 3.13012695 C20.37796925 3.09749529 16.32569472 3.07958429 12.27312279 3.07181358 C10.72817399 3.06627689 9.18323466 3.05546497 7.63836098 3.03925514 C5.47183132 3.01742965 3.30602646 3.01448043 1.1394043 3.01586914 C-0.70925484 3.00587639 -0.70925484 3.00587639 -2.59526062 2.99568176 C-7.27844885 3.49832738 -7.27844885 3.49832738 -10.85400391 6.35644531 C-11.61995387 9.95686264 -11.53290683 13.52156209 -11.49755859 17.19018555 C-11.506436 18.30585907 -11.51531342 19.42153259 -11.52445984 20.5710144 C-11.54821444 24.26932205 -11.53693282 27.96668523 -11.52587891 31.66503906 C-11.5364521 34.22950781 -11.54936088 36.79396792 -11.56451416 39.3584137 C-11.59529923 45.42747336 -11.60462882 51.49620681 -11.60293984 57.56533343 C-11.60148102 66.46903506 -11.63501296 75.37261877 -11.67067337 84.27623844 C-11.69606691 90.66641822 -11.71548227 97.05640546 -11.7164917 103.44664001 C-11.72031221 105.7621969 -11.72415615 108.07775375 -11.72802734 110.39331055 C-11.7248777 111.97767159 -11.7248777 111.97767159 -11.72166443 113.59403992 C-11.72422745 114.56283081 -11.72679047 115.5316217 -11.72943115 116.5297699 C-11.72938961 117.37023582 -11.72934807 118.21070173 -11.72930527 119.07663631 C-11.85076679 121.29726254 -12.23635839 123.2253251 -12.85400391 125.35644531 C-13.51400391 125.02644531 -14.17400391 124.69644531 -14.85400391 124.35644531 C-14.77012668 109.17053711 -14.6750017 93.98472825 -14.56647682 78.7989769 C-14.51634951 71.74800538 -14.46990664 64.69704549 -14.43212891 57.64599609 C-14.39567699 50.84433314 -14.3489689 44.04280273 -14.2959404 37.24124908 C-14.27737433 34.64328472 -14.26227461 32.04529325 -14.25065994 29.44728851 C-14.23383559 25.81498712 -14.20480918 22.18297655 -14.17285156 18.55078125 C-14.17069138 17.47112595 -14.16853119 16.39147064 -14.16630554 15.27909851 C-14.15514206 14.28914383 -14.14397858 13.29918915 -14.13247681 12.27923584 C-14.12694605 11.42012478 -14.12141529 10.56101372 -14.11571693 9.67586899 C-13.82771018 7.12341799 -13.20607714 5.53001641 -11.85400391 3.35644531 C-7.94086292 0.27862312 -4.90247678 -0.01482435 0 0 Z " fill="#458FDD" transform="translate(993.85400390625,516.6435546875)"/>
<path d="M0 0 C0.33 0 0.66 0 1 0 C1.33 29.04 1.66 58.08 2 88 C4.71496466 89.35748233 6.84733573 89.12717801 9.88671875 89.12939453 C11.73873901 89.13412277 11.73873901 89.13412277 13.62817383 89.13894653 C14.98128291 89.13715669 16.33439167 89.13510573 17.6875 89.1328125 C19.06990577 89.13348587 20.45231143 89.13445618 21.8347168 89.13571167 C24.73324713 89.13718707 27.63174668 89.13503914 30.53027344 89.13037109 C34.24953157 89.12467389 37.96871754 89.12795373 41.68797302 89.13394356 C44.54293361 89.13755342 47.39787703 89.13640862 50.25283813 89.13381577 C51.62439991 89.13314767 52.99596323 89.13397082 54.36752319 89.13629532 C56.28277558 89.13882874 58.19803342 89.13428419 60.11328125 89.12939453 C61.20423096 89.12859894 62.29518066 89.12780334 63.41918945 89.12698364 C65.98703776 89.17428025 65.98703776 89.17428025 68 88 C68.33 62.26 68.66 36.52 69 10 C69.33 10 69.66 10 70 10 C70.00808685 10.92263641 70.01617371 11.84527283 70.02450562 12.79586792 C70.10234763 21.47789225 70.18960648 30.15975932 70.28752708 38.84158134 C70.33753835 43.30532581 70.38386776 47.76904606 70.421875 52.23291016 C70.45866706 56.53832281 70.50501001 60.84353509 70.55806351 65.14877701 C70.57663991 66.79382956 70.59173579 68.43892511 70.60334396 70.0840416 C70.62015128 72.38289799 70.64917179 74.68129224 70.68115234 76.97998047 C70.69447601 78.2901413 70.70779968 79.60030212 70.7215271 80.95016479 C70.68194277 84.10852996 70.68194277 84.10852996 73 86 C71.90407134 88.94558188 71.42805844 90.11069909 69 92 C64.22992777 92.93554853 59.44253692 92.77053036 54.6015625 92.69140625 C53.16434094 92.68782727 51.72711228 92.68647212 50.28988647 92.6872406 C47.27842213 92.68255116 44.26803035 92.65773483 41.25683594 92.61743164 C37.40772339 92.56655157 33.55979189 92.55498629 29.71038246 92.55726719 C26.74192138 92.55644888 23.77371562 92.53995291 20.80533981 92.51826286 C19.38686427 92.50875242 17.96835995 92.50281229 16.54985428 92.50058174 C14.56128724 92.49403282 12.57283095 92.46533818 10.58447266 92.43579102 C9.45514313 92.42435562 8.3258136 92.41292023 7.16226196 92.40113831 C3.58557873 91.94742996 1.11580762 90.7728023 -2 89 C-1.67 88.01 -1.34 87.02 -1 86 C-1.3261012 83.66564494 -1.66106737 81.33252658 -2 79 C-2.15901107 75.63569388 -2.16357913 72.27392175 -2.16796875 68.90625 C-2.17202225 67.93333008 -2.17607574 66.96041016 -2.18025208 65.95800781 C-2.18969102 62.805305 -2.18965007 59.65271501 -2.1875 56.5 C-2.1882251 55.43096436 -2.1889502 54.36192871 -2.18969727 53.26049805 C-2.18835993 35.43245735 -1.56468133 17.7607977 0 0 Z " fill="#539FEC" transform="translate(1150,755)"/>
<path d="M0 0 C0.66 0.33 1.32 0.66 2 1 C-0.38443668 3.38443668 -0.92459782 3.26183505 -4.17431641 3.31884766 C-5.46542831 3.34865219 -5.46542831 3.34865219 -6.78262329 3.37905884 C-8.1779982 3.39638565 -8.1779982 3.39638565 -9.6015625 3.4140625 C-10.55316254 3.43342865 -11.50476257 3.4527948 -12.48519897 3.4727478 C-15.53170747 3.53264132 -18.57825354 3.57896795 -21.625 3.625 C-23.6875167 3.66317079 -25.7500173 3.70222198 -27.8125 3.7421875 C-32.87486966 3.83835086 -37.93731395 3.92234563 -43 4 C-43.01213028 5.49337639 -43.01213028 5.49337639 -43.02450562 7.016922 C-43.10192361 16.3902861 -43.18965181 25.76350427 -43.28752708 35.13667774 C-43.33751537 39.95575381 -43.38384516 44.77480769 -43.421875 49.59399414 C-43.45869585 54.243046 -43.50504701 58.89191332 -43.55806351 63.54080772 C-43.5766245 65.31621762 -43.59172614 67.0916671 -43.60334396 68.867136 C-43.62017733 71.35017501 -43.64920491 73.83278979 -43.68115234 76.31567383 C-43.68331253 77.05294708 -43.68547272 77.79022034 -43.68769836 78.54983521 C-43.74856563 82.24247684 -43.89606952 83.84410427 -46 87 C-46.02312297 76.06503529 -46.04091485 65.13007634 -46.05181217 54.1950922 C-46.0570411 49.11808982 -46.06413892 44.04110411 -46.07543945 38.96411133 C-46.08626799 34.06879448 -46.09227676 29.17349371 -46.09487724 24.27816582 C-46.09673155 22.40617049 -46.10035228 20.53417609 -46.10573006 18.66218758 C-46.11294004 16.04959301 -46.11399096 13.43706573 -46.11352539 10.82446289 C-46.11712067 10.04259613 -46.12071594 9.26072937 -46.12442017 8.45516968 C-46.11405216 3.11405216 -46.11405216 3.11405216 -45 2 C-43.62459863 1.88320288 -42.24345318 1.83281695 -40.86328125 1.81054688 C-39.98567139 1.79382935 -39.10806152 1.77711182 -38.20385742 1.7598877 C-37.24970947 1.74631226 -36.29556152 1.73273682 -35.3125 1.71875 C-34.33966064 1.70034058 -33.36682129 1.68193115 -32.36450195 1.66296387 C-28.18289599 1.58398655 -24.00112147 1.51644458 -19.81933594 1.44775391 C-16.77530631 1.39615216 -13.73142102 1.33885132 -10.6875 1.28125 C-9.73335205 1.26767456 -8.7792041 1.25409912 -7.79614258 1.2401123 C-6.91853271 1.22339478 -6.04092285 1.20667725 -5.13671875 1.18945312 C-4.36030029 1.17692505 -3.58388184 1.16439697 -2.78393555 1.15148926 C-0.97613851 1.19105177 -0.97613851 1.19105177 0 0 Z " fill="#C1DEFA" transform="translate(1556,754)"/>
<path d="M0 0 C47.52 0 95.04 0 144 0 C144 12.87 144 25.74 144 39 C142.35 39 140.7 39 139 39 C139.4844458 38.49694336 139.9688916 37.99388672 140.46801758 37.47558594 C142.51651062 34.16535177 142.47727099 31.170703 142.51171875 27.390625 C142.52966995 26.66381531 142.54762115 25.93700562 142.56611633 25.18817139 C142.62013241 22.87550593 142.6540856 20.56304579 142.6875 18.25 C142.72068093 16.6783569 142.75517132 15.10674086 142.79101562 13.53515625 C142.87585328 9.69025254 142.94270506 5.84540878 143 2 C141.96066818 2.00222061 140.92133636 2.00444122 139.85050964 2.00672913 C126.62951536 2.03405991 113.40851805 2.05178743 100.1875 2.0625 C98.61392479 2.06378403 98.61392479 2.06378403 97.00856018 2.06509399 C64.66015977 2.08843013 32.33745935 1.92140684 0 1 C0 0.67 0 0.34 0 0 Z " fill="#4196ED" transform="translate(1365,862)"/>
<path d="M0 0 C49.5 0 99 0 150 0 C150 0.33 150 0.66 150 1 C133.43421025 1.94663381 116.91660045 2.13713075 100.32626772 2.10139394 C96.85369356 2.09502276 93.38111793 2.09454597 89.90853882 2.09336853 C83.37147565 2.0902949 76.83442978 2.08213666 70.29737413 2.07201904 C62.83872533 2.06073256 55.38007559 2.0553163 47.92142034 2.05032361 C32.61427003 2.03994937 17.30713795 2.02222106 2 2 C2 5.3 2 8.6 2 12 C1.01 12.495 1.01 12.495 0 13 C0 8.71 0 4.42 0 0 Z " fill="#499EF1" transform="translate(941,862)"/>
<path d="M0 0 C4.875 3.75 4.875 3.75 6 6 C6.0902835 7.63417595 6.11755658 9.27202837 6.11352539 10.90869141 C6.11344986 11.92959869 6.11337433 12.95050598 6.11329651 14.00234985 C6.10813522 15.10759003 6.10297394 16.2128302 6.09765625 17.3515625 C6.0962413 18.4807309 6.09482635 19.60989929 6.09336853 20.77328491 C6.08775744 24.39054988 6.07520303 28.00775364 6.0625 31.625 C6.05748643 34.07291577 6.05292328 36.52083252 6.04882812 38.96875 C6.0377844 44.97918766 6.02103544 50.98958946 6 57 C4 55 4 55 3.76622009 53.18087769 C3.77367752 52.44555817 3.78113495 51.71023865 3.78881836 50.95263672 C3.79219711 50.11771698 3.79557587 49.28279724 3.79905701 48.4225769 C3.81251663 47.5174234 3.82597626 46.6122699 3.83984375 45.6796875 C3.84504532 44.74706085 3.85024689 43.8144342 3.85560608 42.85354614 C3.87345933 39.86054127 3.90459279 36.86787435 3.9375 33.875 C3.96521847 30.90358023 3.98997251 27.93221445 4.00868225 24.96072388 C4.02082286 23.11080449 4.03830879 21.26090986 4.06199646 19.41110229 C4.10207309 14.17160007 3.76716541 9.18485039 3 4 C-7.34908464 3.08235727 -17.55925936 2.90177214 -27.9375 3 C-30.82161103 3.02683191 -33.70565379 3.04665732 -36.58984375 3.0625 C-37.84659912 3.07410156 -39.10335449 3.08570313 -40.39819336 3.09765625 C-44.00520447 2.99985889 -47.44161672 2.58128747 -51 2 C-51 1.67 -51 1.34 -51 1 C-50.0637252 1.00333092 -50.0637252 1.00333092 -49.10853577 1.00672913 C-42.63657196 1.0287808 -36.16461875 1.0439061 -29.69262695 1.05493164 C-27.27432828 1.05997349 -24.85603267 1.06680678 -22.43774414 1.07543945 C-18.97020717 1.08751157 -15.50271034 1.09322963 -12.03515625 1.09765625 C-10.94662857 1.10281754 -9.85810089 1.10797882 -8.73658752 1.11329651 C-7.73562546 1.11337204 -6.73466339 1.11344757 -5.70336914 1.11352539 C-4.81734512 1.115746 -3.93132111 1.11796661 -3.01844788 1.12025452 C-1.0030131 1.22428041 -1.0030131 1.22428041 0 0 Z " fill="#1174E7" transform="translate(1059,518)"/>
<path d="M0 0 C1.32 0.33 2.64 0.66 4 1 C4 12.88 4 24.76 4 37 C3.34 37 2.68 37 2 37 C2 36.34 2 35.68 2 35 C1.34 35 0.68 35 0 35 C0 23.45 0 11.9 0 0 Z " fill="#56B1F9" transform="translate(1504,925)"/>
<path d="M0 0 C0.99 0 1.98 0 3 0 C4.50149828 3.00299655 4.18438425 6.08476691 4.1875 9.375 C4.19974609 10.04789063 4.21199219 10.72078125 4.22460938 11.4140625 C4.24442642 18.12543493 4.24442642 18.12543493 2 21 C-1.4536133 22.23170406 -4.78694611 22.08511141 -8.42089844 22.02172852 C-9.72194519 22.00163223 -11.02299194 21.98153595 -12.36346436 21.96083069 C-13.77877009 21.93363624 -15.1940736 21.90632537 -16.609375 21.87890625 C-18.06096643 21.85459336 -19.51256581 21.83075039 -20.96417236 21.80735779 C-24.77827015 21.74463306 -28.59222674 21.67553379 -32.40618896 21.60510254 C-36.30067534 21.53431398 -40.19526155 21.46956006 -44.08984375 21.40429688 C-51.72667295 21.27543429 -59.36336303 21.13983664 -67 21 C-67 20.67 -67 20.34 -67 20 C-44.56 19.67 -22.12 19.34 1 19 C1 13.39 1 7.78 1 2 C0.01 1.505 0.01 1.505 -1 1 C-0.67 0.67 -0.34 0.34 0 0 Z " fill="#659CDF" transform="translate(1094,841)"/>
<path d="M0 0 C0.66 0.33 1.32 0.66 2 1 C0 4 0 4 -3 5 C-3.99 6.485 -3.99 6.485 -5 8 C-5.99 8 -6.98 8 -8 8 C-8.185625 8.556875 -8.37125 9.11375 -8.5625 9.6875 C-10.63529883 13.02200247 -13.5631968 15.13233857 -17 17 C-17.99 17 -18.98 17 -20 17 C-20.66 18.32 -21.32 19.64 -22 21 C-23.32 20.67 -24.64 20.34 -26 20 C-17.33333333 13.33333333 -8.66666667 6.66666667 0 0 Z " fill="#3184E9" transform="translate(1142,516)"/>
<path d="M0 0 C5.58078452 2.85240098 10.13228701 6.45932475 14.93359375 10.47265625 C18.29704494 13.24482557 21.72637486 15.91419327 25.1875 18.5625 C25.7645166 19.00416504 26.3415332 19.44583008 26.93603516 19.90087891 C28.28963219 20.93530508 29.64465303 21.96786773 31 23 C28 24 28 24 25.5625 22.875 C22.81092417 20.86165183 21.11164177 18.65658158 19 16 C16.98330173 14.86649466 16.98330173 14.86649466 15 14 C13.99581304 13.00420457 12.99633927 12.00364738 12 11 C10.85364747 10.09855006 9.68634297 9.22313116 8.5 8.375 C7.61828125 7.73691406 7.61828125 7.73691406 6.71875 7.0859375 C4.87589249 5.82563683 4.87589249 5.82563683 2 5 C0.8125 2.4375 0.8125 2.4375 0 0 Z " fill="#2178E6" transform="translate(1302,512)"/>
<path d="M0 0 C3.71651566 1.6399014 6.76610478 4.00631452 9.9375 6.5 C11.0883305 7.39740628 12.23937891 8.29453317 13.390625 9.19140625 C13.98166016 9.65305176 14.57269531 10.11469727 15.18164062 10.59033203 C17.00097135 12.00075303 18.8335794 13.39175541 20.671875 14.77734375 C21.26105713 15.22335937 21.85023926 15.669375 22.45727539 16.12890625 C23.58935644 16.98511543 24.7238726 17.83811674 25.86108398 18.6875 C28.46663869 20.66832628 30.16086831 22.24130246 32 25 C28.88568556 23.50051527 25.9504508 21.79905536 23 20 C21.7315625 19.319375 21.7315625 19.319375 20.4375 18.625 C17.65104956 16.76736637 16.0730716 14.60805781 14 12 C12.68352881 11.30062468 11.34977849 10.63270867 10 10 C8.66666667 8.66666667 7.33333333 7.33333333 6 6 C4.9275 5.29875 3.855 4.5975 2.75 3.875 C1.8425 3.25625 0.935 2.6375 0 2 C0 1.34 0 0.68 0 0 Z " fill="#267EE6" transform="translate(1235,460)"/>
<path d="M0 0 C0.59240479 0.20898926 1.18480957 0.41797852 1.79516602 0.63330078 C-2.86282059 5.47934275 -7.92237853 9.23118546 -14.20483398 11.63330078 C-15.19483398 13.11830078 -15.19483398 13.11830078 -16.20483398 14.63330078 C-18.82983398 15.32080078 -18.82983398 15.32080078 -21.20483398 15.63330078 C-17.40718581 11.6987355 -13.40757011 8.17772657 -9.14233398 4.75830078 C-8.53067383 4.24783203 -7.91901367 3.73736328 -7.28881836 3.21142578 C-2.71094429 -0.45087347 -2.71094429 -0.45087347 0 0 Z " fill="#2880EA" transform="translate(1208.204833984375,466.36669921875)"/>
<path d="M0 0 C3.87962341 1.69378681 7.06452089 4.22285102 10.375 6.8125 C10.92671875 7.23853516 11.4784375 7.66457031 12.046875 8.10351562 C15.76697997 10.9896534 19.39731349 13.96873658 23 17 C20 18 20 18 17.625 16.875 C14.76182158 14.82987256 12.48497894 12.48497894 10 10 C9.175 9.505 8.35 9.01 7.5 8.5 C4.49977053 6.69986232 2.33142768 4.59787655 0 2 C0 1.34 0 0.68 0 0 Z " fill="#277CE9" transform="translate(1408,594)"/>
<path d="M0 0 C3.70607299 1.3790039 6.58792354 3.57929331 9.6875 6 C8.6975 6.495 8.6975 6.495 7.6875 7 C5.5625 6.0625 5.5625 6.0625 3.6875 5 C3.6875 4.34 3.6875 3.68 3.6875 3 C2.39340408 3.45142881 1.10228941 3.91141021 -0.1875 4.375 C-0.90679688 4.63023437 -1.62609375 4.88546875 -2.3671875 5.1484375 C-4.49407994 5.93877783 -4.49407994 5.93877783 -6.3125 8 C-8.9375 8.125 -8.9375 8.125 -11.3125 8 C-3.52871622 0 -3.52871622 0 0 0 Z " fill="#3082E4" transform="translate(1225.3125,453)"/>
<path d="M0 0 C0.72680969 0.00141495 1.45361938 0.0028299 2.20245361 0.00428772 C4.51521994 0.00986833 6.82788812 0.02241721 9.140625 0.03515625 C10.71223818 0.04017376 12.28385289 0.04473623 13.85546875 0.04882812 C17.70055843 0.0598314 21.5455751 0.07708264 25.390625 0.09765625 C25.390625 0.42765625 25.390625 0.75765625 25.390625 1.09765625 C9.055625 1.59265625 9.055625 1.59265625 -7.609375 2.09765625 C-7.609375 2.75765625 -7.609375 3.41765625 -7.609375 4.09765625 C-6.949375 4.09765625 -6.289375 4.09765625 -5.609375 4.09765625 C-5.939375 5.08765625 -6.269375 6.07765625 -6.609375 7.09765625 C-8.259375 5.11765625 -9.909375 3.13765625 -11.609375 1.09765625 C-7.78191777 -0.14240556 -3.97591908 -0.02926577 0 0 Z " fill="#C4DFF6" transform="translate(1037.609375,1058.90234375)"/>
<path d="M0 0 C0.99 0 1.98 0 3 0 C4.50149828 3.00299655 4.18438425 6.08476691 4.1875 9.375 C4.19974609 10.04789063 4.21199219 10.72078125 4.22460938 11.4140625 C4.23543472 15.08024611 4.17094101 17.95916974 2 21 C-0.125 21.75 -0.125 21.75 -2 22 C-1.505 20.515 -1.505 20.515 -1 19 C-0.34 19 0.32 19 1 19 C1 13.39 1 7.78 1 2 C0.34 1.67 -0.32 1.34 -1 1 C-0.67 0.67 -0.34 0.34 0 0 Z " fill="#58A1F0" transform="translate(1094,841)"/>
<path d="M0 0 C3.02898887 1.3990397 5.51374543 3.05334047 8.125 5.125 C8.89972656 5.73730469 9.67445312 6.34960938 10.47265625 6.98046875 C11.30667969 7.64691406 12.14070313 8.31335938 13 9 C14.39025391 10.10794922 14.39025391 10.10794922 15.80859375 11.23828125 C18.20881231 13.15505153 20.60583794 15.0756735 23 17 C22.01 17.33 21.02 17.66 20 18 C19.58105469 17.55785156 19.16210938 17.11570312 18.73046875 16.66015625 C16.48954271 14.51028363 14.00568711 12.89818957 11.42578125 11.18359375 C10.95527344 10.79300781 10.48476562 10.40242187 10 10 C10 9.34 10 8.68 10 8 C7.525 7.01 7.525 7.01 5 6 C5 5.34 5 4.68 5 4 C2.525 3.01 2.525 3.01 0 2 C0 1.34 0 0.68 0 0 Z " fill="#2779E7" transform="translate(1369,564)"/>
<path d="M0 0 C2.49361571 1.20381448 4.68143083 2.45428722 7 4 C7 4.66 7 5.32 7 6 C7.721875 6.28875 8.44375 6.5775 9.1875 6.875 C10.89431703 7.55772681 12.58772134 8.27753508 14.25 9.0625 C18.10181488 10.37561871 21.95985361 10.66552165 26 11 C26 11.33 26 11.66 26 12 C19.07357407 12.51948194 13.5278498 12.7789053 7.7578125 8.578125 C4.8530203 5.97026711 2.36088264 3.10312984 0 0 Z " fill="#ADCFF2" transform="translate(969,1015)"/>
<path d="M0 0 C2.64 0 5.28 0 8 0 C8 8.58 8 17.16 8 26 C7.67 26 7.34 26 7 26 C7 18.08 7 10.16 7 2 C5.35 2.33 3.7 2.66 2 3 C1.34 2.67 0.68 2.34 0 2 C0 1.34 0 0.68 0 0 Z " fill="#227FE8" transform="translate(1222,761)"/>
<path d="M0 0 C1.24716797 0.02707031 1.24716797 0.02707031 2.51953125 0.0546875 C4.55519074 0.10148427 6.5902509 0.17321702 8.625 0.25 C8.625 0.58 8.625 0.91 8.625 1.25 C7.10519531 1.30607422 7.10519531 1.30607422 5.5546875 1.36328125 C4.20309061 1.42898388 2.85152971 1.49542971 1.5 1.5625 C0.50226562 1.59633789 0.50226562 1.59633789 -0.515625 1.63085938 C-5.12211891 1.87924875 -8.47316919 2.77566827 -12.375 5.25 C-13.34406827 7.83414426 -13.34406827 7.83414426 -13.375 10.25 C-14.035 10.25 -14.695 10.25 -15.375 10.25 C-15.75 7.5 -15.75 7.5 -15.375 4.25 C-10.41542882 -0.20089721 -6.29977749 -0.26123479 0 0 Z " fill="#097AED" transform="translate(997.375,518.75)"/>
<path d="M0 0 C-1.82316586 4.40598415 -4.29470328 6.20974055 -8.5625 8.1875 C-11 9 -11 9 -14 9 C-12.23669281 7.4911599 -10.46409603 5.9931702 -8.6875 4.5 C-7.70136719 3.6646875 -6.71523438 2.829375 -5.69921875 1.96875 C-3 0 -3 0 0 0 Z " fill="#297EE7" transform="translate(981,642)"/>
<path d="M0 0 C0 3.10551666 -0.5393715 4.35261084 -2 7 C-3.32 7 -4.64 7 -6 7 C-6.33 8.32 -6.66 9.64 -7 11 C-8.98 11.33 -10.96 11.66 -13 12 C-8.87675353 7.74790208 -4.48717034 3.86364295 0 0 Z " fill="#3F92EE" transform="translate(890,710)"/>
<path d="M0 0 C0.66 0.33 1.32 0.66 2 1 C1.67 1.66 1.34 2.32 1 3 C0.34 3 -0.32 3 -1 3 C-1.226875 3.639375 -1.45375 4.27875 -1.6875 4.9375 C-3 7 -3 7 -5.625 7.75 C-6.800625 7.87375 -6.800625 7.87375 -8 8 C-8.33 8.99 -8.66 9.98 -9 11 C-10.65 11.33 -12.3 11.66 -14 12 C-9.73412126 7.45890328 -4.96387672 3.75264754 0 0 Z " fill="#3785E8" transform="translate(1099,549)"/>
<path d="M0 0 C10.23 0 20.46 0 31 0 C30.67 0.99 30.34 1.98 30 3 C29.34 3 28.68 3 28 3 C28 2.34 28 1.68 28 1 C18.76 1 9.52 1 0 1 C0 0.67 0 0.34 0 0 Z " fill="#B3D8FA" transform="translate(1394,1060)"/>
<path d="M0 0 C5.26630019 3.40554079 10.2703193 6.87668862 15 11 C14.01 11.33 13.02 11.66 12 12 C11.01 11.34 10.02 10.68 9 10 C9 9.34 9 8.68 9 8 C7.88625 7.9071875 7.88625 7.9071875 6.75 7.8125 C3.14877223 6.74850088 2.03243704 5.08629328 0 2 C0 1.34 0 0.68 0 0 Z " fill="#2478E5" transform="translate(1393,582)"/>
<path d="M0 0 C3.40357628 1.45867555 5.78825606 2.99834751 8 6 C8.46376329 8.85044753 8.28369615 11.06847312 8 14 C7.34 14.66 6.68 15.32 6 16 C5.98582031 15.40832031 5.97164062 14.81664062 5.95703125 14.20703125 C5.68335383 9.67286212 5.52002352 7.59612452 2.4375 4.0625 C1.633125 3.381875 0.82875 2.70125 0 2 C0 1.34 0 0.68 0 0 Z " fill="#2E83EF" transform="translate(1565,716)"/>
<path d="M0 0 C0.66 0.33 1.32 0.66 2 1 C1.01 2.485 1.01 2.485 0 4 C-0.99 4 -1.98 4 -3 4 C-3.04125 4.598125 -3.0825 5.19625 -3.125 5.8125 C-4 8 -4 8 -6.9375 9.8125 C-7.948125 10.204375 -8.95875 10.59625 -10 11 C-10.66 10.67 -11.32 10.34 -12 10 C-8.04 6.7 -4.08 3.4 0 0 Z " fill="#3B8BED" transform="translate(912,693)"/>
<path d="M0 0 C0.66 0 1.32 0 2 0 C2.391875 1.155 2.78375 2.31 3.1875 3.5 C4.65402506 7.48866477 6.66547354 10.77608752 9.109375 14.23828125 C9.40328125 14.81964844 9.6971875 15.40101563 10 16 C9.67 16.99 9.34 17.98 9 19 C4.73694925 12.79919891 1.27006154 7.47925129 0 0 Z " fill="#A4C8EF" transform="translate(958,995)"/>
<path d="M0 0 C5.83096952 3.10157953 10.86601899 6.85556181 16 11 C15.01 11.495 15.01 11.495 14 12 C11.8359375 11.00390625 11.8359375 11.00390625 9.375 9.5625 C8.55773438 9.08941406 7.74046875 8.61632812 6.8984375 8.12890625 C6.27195312 7.75636719 5.64546875 7.38382813 5 7 C5 6.34 5 5.68 5 5 C4.34 5 3.68 5 3 5 C1.375 3.625 1.375 3.625 0 2 C0 1.34 0 0.68 0 0 Z " fill="#277EE8" transform="translate(1532,690)"/>
<path d="M0 0 C0.66 0.33 1.32 0.66 2 1 C1.35546875 1.46921875 0.7109375 1.9384375 0.046875 2.421875 C-2.93590883 6.17881647 -2.66969395 9.57764827 -2.75 14.25 C-2.77964844 15.09046875 -2.80929687 15.9309375 -2.83984375 16.796875 C-2.91031636 18.8640715 -2.95744939 20.93204033 -3 23 C-3.33 23 -3.66 23 -4 23 C-4.11608726 19.72946483 -4.18720711 16.4594582 -4.25 13.1875 C-4.28351562 12.25873047 -4.31703125 11.32996094 -4.3515625 10.37304688 C-4.36445312 9.48037109 -4.37734375 8.58769531 -4.390625 7.66796875 C-4.41157227 6.84578857 -4.43251953 6.0236084 -4.45410156 5.17651367 C-4 3 -4 3 -1.97558594 1.20825195 C-0.9976709 0.61016724 -0.9976709 0.61016724 0 0 Z " fill="#398CDC" transform="translate(985,518)"/>
<path d="M0 0 C-0.33214151 3.09998746 -1.0545012 4.0545012 -3.3125 6.3125 C-6 8 -6 8 -8.3125 7.75 C-8.869375 7.5025 -9.42625 7.255 -10 7 C-9.01 6.67 -8.02 6.34 -7 6 C-7 5.34 -7 4.68 -7 4 C-2.52941176 0 -2.52941176 0 0 0 Z " fill="#3588EA" transform="translate(1115,538)"/>
<path d="M0 0 C0.66 0.33 1.32 0.66 2 1 C-0.625 4.875 -0.625 4.875 -4 6 C-4.99 7.485 -4.99 7.485 -6 9 C-8.625 9.6875 -8.625 9.6875 -11 10 C-7.50640535 6.40365256 -3.88901869 3.16548033 0 0 Z " fill="#3C87E8" transform="translate(1173,492)"/>
<path d="M0 0 C0.66 0.33 1.32 0.66 2 1 C1.01 2.485 1.01 2.485 0 4 C-0.66 4 -1.32 4 -2 4 C-2.33 4.99 -2.66 5.98 -3 7 C-6.21284338 8.88579937 -8.24633583 10 -12 10 C-8.04 6.7 -4.08 3.4 0 0 Z " fill="#448CED" transform="translate(1082,562)"/>
<path d="M0 0 C2.02045442 0.60183749 4.02111039 1.27306096 6 2 C6.33 2.66 6.66 3.32 7 4 C7.99 4.33 8.98 4.66 10 5 C10 7.97 10 10.94 10 14 C9.67 14 9.34 14 9 14 C8.7215625 12.453125 8.7215625 12.453125 8.4375 10.875 C7.28353448 6.66943677 4.84509444 4.74707208 1.4609375 2.1640625 C0.97882813 1.77992188 0.49671875 1.39578125 0 1 C0 0.67 0 0.34 0 0 Z " fill="#D0EBFE" transform="translate(1564,714)"/>
<path d="M0 0 C0.33 0.99 0.66 1.98 1 3 C-2.07999946 6.67230705 -4.2482602 7.56802365 -9 8 C-8.67 7.34 -8.34 6.68 -8 6 C-7.34 6 -6.68 6 -6 6 C-6 5.34 -6 4.68 -6 4 C-4.03852126 2.61061923 -2.03833424 1.2739589 0 0 Z " fill="#3386ED" transform="translate(942,670)"/>
<path d="M0 0 C0.66 0.33 1.32 0.66 2 1 C2 1.99 2 2.98 2 4 C0.68212715 5.02028865 -0.65210653 6.01971384 -2 7 C-2.33 7.99 -2.66 8.98 -3 10 C-3.99 10.33 -4.98 10.66 -6 11 C-6.33 10.34 -6.66 9.68 -7 9 C-6.01 9 -5.02 9 -4 9 C-3.67 7.02 -3.34 5.04 -3 3 C-2.01 2.67 -1.02 2.34 0 2 C0 1.34 0 0.68 0 0 Z " fill="#2788F0" transform="translate(1566,740)"/>
<path d="M0 0 C0.66 0.33 1.32 0.66 2 1 C0 4 0 4 -3 5 C-3.99 6.485 -3.99 6.485 -5 8 C-7.625 8.6875 -7.625 8.6875 -10 9 C-6.83047153 5.73991357 -3.60062011 2.77762123 0 0 Z " fill="#458DEA" transform="translate(1197,473)"/>
<path d="M0 0 C4.59306496 1.4859916 7.43569245 3.85014682 11 7 C10.01 7.495 10.01 7.495 9 8 C6.875 7.0625 6.875 7.0625 5 6 C5 5.34 5 4.68 5 4 C2.525 3.01 2.525 3.01 0 2 C0 1.34 0 0.68 0 0 Z " fill="#2778E7" transform="translate(1467,640)"/>
<path d="M0 0 C5.03985731 0.44469329 7.37634988 2.71343362 11 6 C8 7 8 7 5.5 5.8125 C3.0806818 4.05849431 1.62617349 2.48205427 0 0 Z " fill="#1E79F1" transform="translate(1420,605)"/>
<path d="M0 0 C4.81033104 2.54664585 8.32442148 4.99027798 12 9 C8.10806661 8.42341728 5.95460159 6.5000475 3 4 C2.01 3.34 1.02 2.68 0 2 C0 1.34 0 0.68 0 0 Z " fill="#267AE6" transform="translate(1338,540)"/>
<path d="M0 0 C0.66 0.33 1.32 0.66 2 1 C0 4 0 4 -3 5 C-3.99 6.485 -3.99 6.485 -5 8 C-7.625 8.6875 -7.625 8.6875 -10 9 C-6.83047153 5.73991357 -3.60062011 2.77762123 0 0 Z " fill="#3C86E4" transform="translate(1142,516)"/>
<path d="M0 0 C1.48285242 0.95262034 2.96118201 1.91228405 4.4375 2.875 C5.67306641 3.67550781 5.67306641 3.67550781 6.93359375 4.4921875 C9 6 9 6 10 8 C8.68 8 7.36 8 6 8 C5.67 7.34 5.34 6.68 5 6 C4.01 5.67 3.02 5.34 2 5 C0.8125 2.4375 0.8125 2.4375 0 0 Z " fill="#1E79E9" transform="translate(1478,648)"/>
<path d="M0 0 C3.63 0 7.26 0 11 0 C11 0.33 11 0.66 11 1 C8.69 1 6.38 1 4 1 C4 1.66 4 2.32 4 3 C4.66 3 5.32 3 6 3 C5.67 3.99 5.34 4.98 5 6 C3.35 4.02 1.7 2.04 0 0 Z " fill="#BEDAF0" transform="translate(1026,1060)"/>
<path d="M0 0 C2.64 0 5.28 0 8 0 C7.67 1.32 7.34 2.64 7 4 C7 3.34 7 2.68 7 2 C6.21625 2.185625 5.4325 2.37125 4.625 2.5625 C2 3 2 3 0 2 C0 1.34 0 0.68 0 0 Z " fill="#0576E2" transform="translate(1222,761)"/>
<path d="M0 0 C0.66 0.33 1.32 0.66 2 1 C-1.32307692 5.8 -1.32307692 5.8 -4.75 6.8125 C-5.4925 6.874375 -6.235 6.93625 -7 7 C-4.66666667 4.66666667 -2.33333333 2.33333333 0 0 Z " fill="#3484E7" transform="translate(957,658)"/>
<path d="M0 0 C3.36591866 1.44253657 5.51047079 3.33264727 8 6 C7.01 6.33 6.02 6.66 5 7 C4.34 6.01 3.68 5.02 3 4 C2.01 3.67 1.02 3.34 0 3 C0 2.01 0 1.02 0 0 Z " fill="#1E7DEC" transform="translate(1516,678)"/>
<path d="M0 0 C1.11375 0.598125 2.2275 1.19625 3.375 1.8125 C4.00148438 2.14894531 4.62796875 2.48539063 5.2734375 2.83203125 C7 4 7 4 9 7 C2.29787234 5.06382979 2.29787234 5.06382979 0 2 C0 1.34 0 0.68 0 0 Z " fill="#1C77EA" transform="translate(1443,621)"/>
<path d="M0 0 C0.33 0 0.66 0 1 0 C0.67 2.64 0.34 5.28 0 8 C-0.66 8 -1.32 8 -2 8 C-2 6.02 -2 4.04 -2 2 C-1.34 2 -0.68 2 0 2 C0 1.34 0 0.68 0 0 Z " fill="#167DF9" transform="translate(1570,730)"/>
<path d="M0 0 C0.33 0.66 0.66 1.32 1 2 C-1.52788007 4.79872437 -3.20411134 6.45773019 -7 7 C-4.66666667 4.66666667 -2.33333333 2.33333333 0 0 Z " fill="#3C89E9" transform="translate(926,682)"/>
<path d="M0 0 C1.65 0 3.3 0 5 0 C0.25 4.875 0.25 4.875 -2 6 C-1.49396008 3.83125748 -1.00016187 2.00032373 0 0 Z " fill="#0B75F2" transform="translate(959,657)"/>
<path d="M0 0 C5.75 3.625 5.75 3.625 8 7 C5.33333333 5.66666667 2.66666667 4.33333333 0 3 C0 2.01 0 1.02 0 0 Z " fill="#2E80EC" transform="translate(1259,478)"/>
</svg>
